<svg width="88" height="88" viewBox="0 0 88 88" fill="none" xmlns="http://www.w3.org/2000/svg">
<path fill-rule="evenodd" clip-rule="evenodd" d="M43.75 7.5C23.7297 7.5 7.5 23.7297 7.5 43.75C7.5 63.7703 23.7297 80 43.75 80C63.7703 80 80 63.7703 80 43.75C80 23.7297 63.7703 7.5 43.75 7.5ZM0 43.75C0 19.5875 19.5875 0 43.75 0C67.9125 0 87.5 19.5875 87.5 43.75C87.5 67.9125 67.9125 87.5 43.75 87.5C19.5875 87.5 0 67.9125 0 43.75Z" fill="#FF3440"/>
<path fill-rule="evenodd" clip-rule="evenodd" d="M43.75 25C45.8211 25 47.5 26.6789 47.5 28.75V47.5C47.5 49.5711 45.8211 51.25 43.75 51.25C41.6789 51.25 40 49.5711 40 47.5V28.75C40 26.6789 41.6789 25 43.75 25Z" fill="#FF3440"/>
<path fill-rule="evenodd" clip-rule="evenodd" d="M43.75 55C45.8211 55 47.5 56.6789 47.5 58.75V59C47.5 61.0711 45.8211 62.75 43.75 62.75C41.6789 62.75 40 61.0711 40 59V58.75C40 56.6789 41.6789 55 43.75 55Z" fill="#FF3440"/>
</svg>
