<svg width="53" height="43" viewBox="0 0 53 43" fill="none" xmlns="http://www.w3.org/2000/svg">
<path d="M44.1283 4.56335H8.58953C6.43612 4.56335 4.69043 6.30904 4.69043 8.46245V25.8301C4.69043 27.9835 6.43612 29.7292 8.58953 29.7292H44.1283C46.2817 29.7292 48.0274 27.9835 48.0274 25.8301V8.46245C48.0274 6.30904 46.2817 4.56335 44.1283 4.56335Z" fill="#B5CEFF"/>
<path d="M45.0631 0H7.6547C3.4317 0 0 3.4358 0 7.6547V26.6336C0 30.8566 3.4358 34.2883 7.6547 34.2883H22.2589V36.6499H13.0216C10.7502 36.6499 8.856 38.2981 8.4706 40.4588H4.8626C4.4116 40.4588 4.0426 40.8278 4.0426 41.2788C4.0426 41.7298 4.4116 42.0988 4.8626 42.0988H47.8634C48.3144 42.0988 48.6834 41.7298 48.6834 41.2788C48.6834 40.8278 48.3144 40.4588 47.8634 40.4588H44.2554C43.8659 38.2981 41.9758 36.6499 39.7044 36.6499H30.4671V34.2883H45.0713C49.2902 34.2883 52.726 30.8525 52.726 26.6336V7.6547C52.726 3.4317 49.2902 0 45.0713 0H45.0631ZM42.5744 40.4629H10.1434C10.5001 39.2124 11.6563 38.294 13.0175 38.294H39.6962C41.0615 38.294 42.2136 39.2124 42.5703 40.4629H42.5744ZM28.8189 36.654H23.8948V34.2924H28.8189V36.654ZM51.0778 26.6377C51.0778 29.9546 48.38 32.6524 45.0631 32.6524H7.6547C4.3378 32.6524 1.64 29.9546 1.64 26.6377V7.6588C1.64 4.3419 4.3378 1.6441 7.6547 1.6441H45.0672C48.3841 1.6441 51.0819 4.3419 51.0819 7.6588V26.6377H51.0778Z" fill="#2E6FF2"/>
<path d="M21.8735 15.3053C22.1031 15.1905 22.2343 15.0306 22.263 14.8215C22.2917 14.6165 22.263 14.4156 22.1769 14.2229C22.0826 14.0097 21.9391 13.8703 21.7587 13.8047C21.5783 13.7391 21.3651 13.7678 21.1232 13.8908L15.9736 16.5886C15.8014 16.6829 15.6579 16.7731 15.5472 16.8551C15.4365 16.9371 15.3504 17.0191 15.2889 17.1093C15.2274 17.1954 15.1823 17.2897 15.1577 17.3922C15.1331 17.4947 15.1208 17.6013 15.1208 17.7161C15.1208 17.9457 15.1741 18.1425 15.2807 18.3065C15.3873 18.4705 15.6169 18.6427 15.9736 18.8272L21.1068 21.525C21.3487 21.6521 21.5619 21.6808 21.7505 21.6111C21.9391 21.5455 22.0785 21.4061 22.1769 21.1929C22.263 20.992 22.2917 20.787 22.263 20.582C22.2343 20.377 22.1031 20.213 21.8735 20.0982L17.2282 17.7325V17.6464L21.8735 15.3094V15.3053Z" fill="#2E6FF2"/>
<path d="M28.1711 12.464C27.9825 12.4066 27.798 12.4066 27.6217 12.4599C27.429 12.5173 27.2937 12.6608 27.2158 12.8863L24.0834 22.1031C24.0137 22.3122 24.0301 22.4967 24.1326 22.6525C24.231 22.8042 24.3745 22.9026 24.559 22.9559C24.6574 22.9846 24.7517 23.001 24.8501 23.001C24.9403 23.001 25.0264 22.9887 25.1125 22.9641C25.3052 22.9067 25.4405 22.7632 25.5184 22.5377L28.659 13.3209C28.7287 13.12 28.7082 12.9355 28.6016 12.7756C28.495 12.6157 28.3556 12.5173 28.167 12.4681L28.1711 12.464Z" fill="#2E6FF2"/>
<path d="M37.4412 17.1093C37.3797 17.0232 37.2936 16.9371 37.1829 16.8551C37.0722 16.7731 36.9287 16.6829 36.7565 16.5886L31.6069 13.8908C31.365 13.7678 31.1559 13.735 30.9714 13.8047C30.791 13.8703 30.6475 14.0097 30.5532 14.2229C30.4671 14.4156 30.4384 14.6165 30.4671 14.8215C30.4958 15.0265 30.627 15.1905 30.8566 15.3053L35.5019 17.6423V17.7284L30.8566 20.0941C30.627 20.2089 30.4958 20.3688 30.4671 20.5779C30.4384 20.7829 30.4671 20.9879 30.5532 21.1888C30.6475 21.402 30.791 21.5414 30.9796 21.607C31.1682 21.6726 31.3814 21.6439 31.6233 21.5209L36.7606 18.8231C37.1173 18.6386 37.3469 18.4664 37.4535 18.3024C37.5601 18.1384 37.6134 17.9416 37.6134 17.712C37.6134 17.5972 37.6011 17.4906 37.5765 17.3881C37.5519 17.2856 37.5109 17.1913 37.4453 17.1052L37.4412 17.1093Z" fill="#2E6FF2"/>
</svg>
