<svg width="45" height="59" viewBox="0 0 45 59" fill="none" xmlns="http://www.w3.org/2000/svg">
<path d="M22.4352 44.8704C34.8258 44.8704 44.8704 34.8258 44.8704 22.4352C44.8704 10.0446 34.8258 0 22.4352 0C10.0446 0 0 10.0446 0 22.4352C0 34.8258 10.0446 44.8704 22.4352 44.8704Z" fill="#B5CEFF"/>
<path d="M33.8742 10.2787C30.627 7.1504 26.3466 5.5268 21.8284 5.699C13.3742 6.0229 6.44515 12.8986 6.05565 21.3487C5.84245 25.953 7.58495 30.463 10.8281 33.7225C12.2508 35.1493 13.0339 36.9943 13.0339 38.9172V39.032C13.0339 40.6679 13.8211 42.1193 15.0347 43.0377C14.0343 43.7019 13.3742 44.8376 13.3742 46.125V51.1434C13.3742 52.5579 14.1737 53.792 15.3422 54.4152C15.375 54.4316 15.4078 54.448 15.4406 54.4603C15.8178 54.6489 16.2278 54.776 16.6665 54.8211C17.5193 57.277 19.8235 58.9498 22.4762 58.9498C25.1289 58.9498 27.4331 57.2811 28.2859 54.8211C30.135 54.612 31.5741 53.0417 31.5741 51.1393V46.1209C31.5741 44.9483 31.0247 43.9028 30.1678 43.2222C30.1432 43.2017 30.1186 43.1853 30.094 43.1689C30.0325 43.1238 29.9751 43.0787 29.9095 43.0377C31.1231 42.1193 31.9103 40.6679 31.9103 39.032C31.9103 37.0476 32.7139 35.1411 34.1735 33.661C37.2239 30.5655 38.9049 26.4696 38.9049 22.1236C38.9049 17.7776 37.1132 13.407 33.8619 10.2787H33.8742ZM17.0847 44.0586H25.2232L15.0183 46.4243V46.125C15.0183 44.9852 15.9449 44.0586 17.0847 44.0586V44.0586ZM15.047 51.4099L29.9423 47.9536V49.5772L15.9039 52.8326C15.4406 52.5087 15.1249 51.9962 15.047 51.4099V51.4099ZM15.0183 49.733V48.1094L29.4216 44.7679C29.7414 45.1328 29.9423 45.6043 29.9423 46.125V46.2685L15.0183 49.7289V49.733ZM27.8759 53.2098H21.5332L29.93 51.2623C29.8685 52.3447 28.9747 53.2098 27.8759 53.2098ZM33.0173 32.513C31.2543 34.3006 30.2826 36.6171 30.2826 39.0361C30.2826 40.9016 28.7656 42.4227 26.896 42.4227H18.0646C16.1991 42.4227 14.678 40.9057 14.678 39.0361V38.9213C14.678 36.5597 13.7268 34.3047 11.9966 32.5663C9.03225 29.5897 7.50295 25.6332 7.69975 21.4266C8.05235 13.8211 14.2885 7.6342 21.8981 7.3431C22.0949 7.3349 22.2917 7.3308 22.4885 7.3308C26.3384 7.3308 29.9587 8.7863 32.7426 11.4636C35.67 14.2803 37.2813 18.0687 37.2813 22.1277C37.2813 26.1867 35.7684 29.7291 33.0214 32.513H33.0173Z" fill="#2E6FF2"/>
<path d="M19.8809 21.9104C20.582 21.9104 21.1519 21.3405 21.1519 20.6394C21.1519 19.9383 20.582 19.3684 19.8809 19.3684C19.1798 19.3684 18.6099 19.9383 18.6099 20.6394C18.6099 21.3405 19.1798 21.9104 19.8809 21.9104Z" fill="#2E6FF2"/>
<path d="M24.3376 21.9104C25.0387 21.9104 25.6086 21.3405 25.6086 20.6394C25.6086 19.9383 25.0387 19.3684 24.3376 19.3684C23.6365 19.3684 23.0666 19.9383 23.0666 20.6394C23.0666 21.3405 23.6365 21.9104 24.3376 21.9104Z" fill="#2E6FF2"/>
<path d="M25.2929 23.6078C24.8788 23.4233 24.3991 23.5996 24.2146 24.0137C24.1982 24.0465 23.7595 24.846 22.1195 24.846C20.4795 24.846 20.0285 24.067 19.9957 24.0055C19.7989 23.6078 19.3192 23.4356 18.9174 23.6242C18.5074 23.8128 18.327 24.3007 18.5156 24.7107C18.5484 24.7845 19.3684 26.486 22.1195 26.486C24.8706 26.486 25.6701 24.7722 25.7029 24.6984C25.8874 24.2843 25.7029 23.7882 25.2929 23.6037V23.6078Z" fill="#2E6FF2"/>
</svg>
