<svg width="14" height="17" viewBox="0 0 14 17" fill="none" xmlns="http://www.w3.org/2000/svg">
<path d="M6.89999 0C7.16469 1e-05 7.40269 0.11425 7.56729 0.29611L13.566 6.89458C13.9003 7.26238 13.8732 7.83158 13.5054 8.16598C13.1376 8.50028 12.5684 8.47318 12.2341 8.10538L7.79999 3.22794V15.3C7.79999 15.7971 7.39709 16.2 6.89999 16.2C6.40299 16.2 5.99999 15.7971 5.99999 15.3V3.22796L1.56595 8.10538C1.2316 8.47318 0.662391 8.50028 0.294601 8.16598C-0.0731888 7.83158 -0.100298 7.26238 0.234062 6.89458L6.23089 0.29811C6.39559 0.11508 6.63439 0 6.89999 0Z" fill="#8D9299"/>
</svg>
