<svg width="14" height="14" viewBox="0 0 14 14" fill="none" xmlns="http://www.w3.org/2000/svg">
<path d="M7 0C10.866 0 14 3.13401 14 7C14 10.866 10.866 14 7 14C3.13401 14 0 10.866 0 7C5.63724e-08 3.13401 3.13401 5.63742e-08 7 0ZM9.76953 4.92773C9.50859 4.72366 9.13192 4.76946 8.92773 5.03027L6.52441 8.10254L5.01953 6.63086C4.78257 6.39922 4.40254 6.40367 4.1709 6.64062C3.93936 6.87759 3.94374 7.25765 4.18066 7.48926L6.16504 9.42871C6.28694 9.54788 6.45393 9.60983 6.62402 9.59863C6.79428 9.58729 6.9525 9.50355 7.05762 9.36914L9.87305 5.76953C10.0769 5.50855 10.0304 5.13182 9.76953 4.92773Z" fill="#D9DBE0"/>
</svg>
