<svg width="15" height="16" viewBox="0 0 15 16" fill="none" xmlns="http://www.w3.org/2000/svg">
<path fill-rule="evenodd" clip-rule="evenodd" d="M11.5833 1.5C10.8009 1.5 10.1667 2.13426 10.1667 2.91666C10.1667 3.69907 10.8009 4.33333 11.5833 4.33333C12.3657 4.33333 13 3.69907 13 2.91666C13 2.13426 12.3657 1.5 11.5833 1.5ZM8.6667 2.91666C8.6667 1.30584 9.9725 0 11.5833 0C13.1942 0 14.5 1.30584 14.5 2.91666C14.5 4.52749 13.1942 5.83333 11.5833 5.83333C10.7458 5.83333 9.9906 5.48028 9.4587 4.91488L5.67247 6.72568C5.7767 7.02564 5.83333 7.34787 5.83333 7.68333C5.83333 8.0188 5.7767 8.341 5.67247 8.641L9.4587 10.4518C9.9906 9.8864 10.7458 9.5333 11.5833 9.5333C13.1942 9.5333 14.5 10.8392 14.5 12.45C14.5 14.0608 13.1942 15.3667 11.5833 15.3667C9.9725 15.3667 8.6667 14.0608 8.6667 12.45C8.6667 12.2171 8.694 11.9906 8.7455 11.7734L4.81808 9.8951C4.3075 10.3344 3.64309 10.6 2.91666 10.6C1.30584 10.6 0 9.2942 0 7.68333C0 6.0725 1.30584 4.76666 2.91666 4.76666C3.64309 4.76666 4.3075 5.03223 4.81808 5.47158L8.7455 3.59323C8.694 3.3761 8.6667 3.14957 8.6667 2.91666ZM4.04148 6.82197C3.78254 6.48435 3.37503 6.26666 2.91666 6.26666C2.13426 6.26666 1.5 6.90093 1.5 7.68333C1.5 8.4657 2.13426 9.1 2.91666 9.1C3.37502 9.1 3.78254 8.8823 4.04148 8.5447C4.04737 8.5365 4.05341 8.5284 4.05959 8.5205C4.23169 8.286 4.33333 7.9965 4.33333 7.68333C4.33333 7.37012 4.23169 7.08066 4.05959 6.84612C4.05341 6.83821 4.04737 6.83016 4.04148 6.82197ZM11.5833 11.0333C10.8009 11.0333 10.1667 11.6676 10.1667 12.45C10.1667 13.2324 10.8009 13.8667 11.5833 13.8667C12.3657 13.8667 13 13.2324 13 12.45C13 11.6676 12.3657 11.0333 11.5833 11.0333Z" fill="#8D9299"/>
</svg>
