<svg width="14" height="14" viewBox="0 0 14 14" fill="none" xmlns="http://www.w3.org/2000/svg">
<path fill-rule="evenodd" clip-rule="evenodd" d="M3 1.2C2.00589 1.2 1.2 2.00589 1.2 3V10.2C1.2 11.1941 2.00589 12 3 12H7.41824C7.97708 12 8.50423 11.7404 8.84496 11.2975L11.6267 7.68119C11.8688 7.36653 12 6.98069 12 6.58371V3C12 2.00589 11.1941 1.2 10.2 1.2H3ZM0 3C0 1.34315 1.34315 0 3 0H10.2C11.8569 0 13.2 1.34315 13.2 3V6.58371C13.2 7.24534 12.9813 7.88841 12.5779 8.41284L9.79611 12.0291C9.22822 12.7674 8.34964 13.2 7.41824 13.2H3C1.34315 13.2 0 11.8569 0 10.2V3Z" fill="#47494D"/>
<path fill-rule="evenodd" clip-rule="evenodd" d="M8.79941 8.2C8.68896 8.2 8.59941 8.28954 8.59941 8.4V12.4C8.59941 12.7314 8.33078 13 7.99941 13C7.66804 13 7.39941 12.7314 7.39941 12.4V8.4C7.39941 7.6268 8.02622 7 8.79941 7H12.1994C12.5308 7 12.7994 7.26863 12.7994 7.6C12.7994 7.93137 12.5308 8.2 12.1994 8.2H8.79941Z" fill="#47494D"/>
</svg>
