<svg width="17" height="18" viewBox="0 0 17 18" fill="none" xmlns="http://www.w3.org/2000/svg">
<path fill-rule="evenodd" clip-rule="evenodd" d="M8.25 1.5C6.45507 1.5 5 2.95507 5 4.75C5 6.54493 6.45507 8 8.25 8C10.0449 8 11.5 6.54493 11.5 4.75C11.5 2.95507 10.0449 1.5 8.25 1.5ZM3.5 4.75C3.5 2.12665 5.62665 0 8.25 0C10.8734 0 13 2.12665 13 4.75C13 7.37335 10.8734 9.5 8.25 9.5C5.62665 9.5 3.5 7.37335 3.5 4.75Z" fill="#8D9299"/>
<path fill-rule="evenodd" clip-rule="evenodd" d="M8.25 9.5C4.52208 9.5 1.5 12.5221 1.5 16.25V16.75C1.5 17.1642 1.16421 17.5 0.75 17.5C0.335786 17.5 0 17.1642 0 16.75V16.25C0 11.6937 3.69365 8 8.25 8C12.8063 8 16.5 11.6937 16.5 16.25V16.75C16.5 17.1642 16.1642 17.5 15.75 17.5C15.3358 17.5 15 17.1642 15 16.75V16.25C15 12.5221 11.9779 9.5 8.25 9.5Z" fill="#8D9299"/>
</svg>
