<svg width="37" height="37" viewBox="0 0 37 37" fill="none" xmlns="http://www.w3.org/2000/svg">
<path d="M13.1192 16.4116H3.29241C1.47704 16.4116 0 14.9346 0 13.1192V3.29221C0 1.47684 1.47704 0 3.29241 0H13.1192C14.9346 0 16.4116 1.47684 16.4116 3.29221V13.1192C16.4116 14.9346 14.9346 16.4116 13.1192 16.4116ZM3.29241 1.64C2.38112 1.64 1.64 2.38112 1.64 3.29221V13.1192C1.64 14.0303 2.38112 14.7716 3.29241 14.7716H13.1192C14.0305 14.7716 14.7716 14.0303 14.7716 13.1192V3.29221C14.7716 2.38112 14.0305 1.64 13.1192 1.64H3.29241Z" fill="#2E6FF2"/>
<path d="M33.1445 0.820007H23.3176C21.9522 0.820007 20.8453 1.9269 20.8453 3.29231V13.1193C20.8453 14.4847 21.9522 15.5916 23.3176 15.5916H33.1445C34.5099 15.5916 35.6168 14.4847 35.6168 13.1193V3.29231C35.6168 1.9269 34.5099 0.820007 33.1445 0.820007Z" fill="#B5CEFF"/>
<path d="M33.1443 16.4116H23.3176C21.5022 16.4116 20.0251 14.9346 20.0251 13.1192V3.29221C20.0251 1.47684 21.5022 0 23.3176 0H33.1443C34.9597 0 36.4368 1.47684 36.4368 3.29221V13.1192C36.4368 14.9346 34.9597 16.4116 33.1443 16.4116ZM23.3176 1.64C22.4063 1.64 21.6651 2.38112 21.6651 3.29221V13.1192C21.6651 14.0303 22.4063 14.7716 23.3176 14.7716H33.1443C34.0556 14.7716 34.7968 14.0303 34.7968 13.1192V3.29221C34.7968 2.38112 34.0556 1.64 33.1443 1.64H23.3176Z" fill="#2E6FF2"/>
<path d="M13.1192 36.1573H3.29241C1.47704 36.1573 0 34.6804 0 32.8651V23.0381C0 21.2227 1.47704 19.7457 3.29241 19.7457H13.1192C14.9346 19.7457 16.4116 21.2227 16.4116 23.0381V32.8651C16.4116 34.6804 14.9346 36.1573 13.1192 36.1573ZM3.29241 21.3857C2.38112 21.3857 1.64 22.127 1.64 23.0381V32.8651C1.64 33.7762 2.38112 34.5173 3.29241 34.5173H13.1192C14.0305 34.5173 14.7716 33.7762 14.7716 32.8651V23.0381C14.7716 22.127 14.0305 21.3857 13.1192 21.3857H3.29241Z" fill="#2E6FF2"/>
<path d="M33.1443 36.1573H23.3176C21.5022 36.1573 20.0251 34.6804 20.0251 32.8651V23.0381C20.0251 21.2227 21.5022 19.7457 23.3176 19.7457H33.1443C34.9597 19.7457 36.4368 21.2227 36.4368 23.0381V32.8651C36.4368 34.6804 34.9597 36.1573 33.1443 36.1573ZM23.3176 21.3857C22.4063 21.3857 21.6651 22.127 21.6651 23.0381V32.8651C21.6651 33.7762 22.4063 34.5173 23.3176 34.5173H33.1443C34.0556 34.5173 34.7968 33.7762 34.7968 32.8651V23.0381C34.7968 22.127 34.0556 21.3857 33.1443 21.3857H23.3176Z" fill="#2E6FF2"/>
</svg>
