<svg width="21" height="21" viewBox="0 0 21 21" fill="none" xmlns="http://www.w3.org/2000/svg">
<path fill-rule="evenodd" clip-rule="evenodd" d="M0 5.7C0 2.55198 2.55198 0 5.7 0H15.3C18.448 0 21 2.55198 21 5.7V15.3C21 18.448 18.448 21 15.3 21H5.7C2.55198 21 0 18.448 0 15.3V5.7ZM5.7 1.8C3.54609 1.8 1.8 3.54609 1.8 5.7V15.3C1.8 17.4539 3.54609 19.2 5.7 19.2H15.3C17.4539 19.2 19.2 17.4539 19.2 15.3V5.7C19.2 3.54609 17.4539 1.8 15.3 1.8H5.7Z" fill="#F3F5FA"/>
<path fill-rule="evenodd" clip-rule="evenodd" d="M6.59961 5.40001C5.93687 5.40001 5.39961 5.93726 5.39961 6.60001C5.39961 7.26275 5.93687 7.80001 6.59961 7.80001C7.26235 7.80001 7.79961 7.26275 7.79961 6.60001C7.79961 5.93726 7.26235 5.40001 6.59961 5.40001ZM3.59961 6.60001C3.59961 4.94315 4.94276 3.60001 6.59961 3.60001C8.25646 3.60001 9.59961 4.94315 9.59961 6.60001C9.59961 8.25686 8.25646 9.60001 6.59961 9.60001C4.94276 9.60001 3.59961 8.25686 3.59961 6.60001Z" fill="#F3F5FA"/>
<path fill-rule="evenodd" clip-rule="evenodd" d="M16.5199 11.0655C15.9098 10.3029 14.7453 10.3174 14.1544 11.0949L11.642 14.4007C10.6097 15.7589 8.71232 16.1065 7.26564 15.2023L5.94209 14.3751C5.34978 14.0049 4.58034 14.0925 4.08643 14.5864L1.53646 17.1364L0.263672 15.8636L2.81364 13.3136C3.90023 12.2271 5.593 12.0343 6.89609 12.8487L8.21964 13.6759C8.87722 14.0869 9.73967 13.9289 10.2089 13.3115L12.7213 10.0058C14.0213 8.2952 16.5833 8.26334 17.9255 9.94105L20.8029 13.5378L19.3973 14.6622L16.5199 11.0655Z" fill="#F3F5FA"/>
</svg>
