<svg width="9" height="9" viewBox="0 0 9 9" fill="none" xmlns="http://www.w3.org/2000/svg">
<path d="M8.0659 0.27775C8.04405 0.22506 8.01182 0.17568 7.96915 0.13276L7.96725 0.13085C7.88589 0.0499801 7.77377 0 7.65 0H1.65C1.40147 0 1.2 0.20147 1.2 0.45C1.2 0.69853 1.40147 0.9 1.65 0.9H6.5636L0.131805 7.3318C-0.043935 7.50754 -0.043935 7.79246 0.131805 7.9682C0.307535 8.14395 0.592465 8.14395 0.768195 7.9682L7.20001 1.5364V6.45C7.20001 6.69853 7.40147 6.9 7.65 6.9C7.89852 6.9 8.10001 6.69853 8.10001 6.45V0.45C8.10001 0.38899 8.0879 0.33081 8.0659 0.27775Z" fill="#2E6FF2"/>
</svg>
