<svg width="21" height="15" viewBox="0 0 21 15" fill="none" xmlns="http://www.w3.org/2000/svg">
<path d="M14.8204 14.3638C14.8204 14.3638 14.2016 13.6284 13.6857 12.9786C15.938 12.3459 16.7977 10.9438 16.7977 10.9438C16.0928 11.4055 15.4222 11.7305 14.8204 11.9526C13.9609 12.3118 13.1355 12.551 12.3275 12.6879C10.6769 12.9957 9.16389 12.9102 7.87446 12.6708C6.89438 12.4826 6.05192 12.2091 5.34707 11.9356C4.95157 11.7817 4.52178 11.5936 4.09184 11.3542C4.04038 11.32 3.98875 11.3029 3.93721 11.2686C3.90284 11.2516 3.88558 11.2345 3.8684 11.2174C3.55897 11.0464 3.38699 10.9267 3.38699 10.9267C3.38699 10.9267 4.21235 12.2947 6.39579 12.9444C5.8801 13.5943 5.2439 14.3636 5.2439 14.3636C1.44411 14.244 0 11.7646 0 11.7646C0 6.25861 2.4758 1.79554 2.4758 1.79554C4.95157 -0.0511951 7.30706 0.000142415 7.30706 0.000142415L7.47896 0.205414C4.38425 1.09435 2.95721 2.4454 2.95721 2.4454C2.95721 2.4454 3.33545 2.2402 3.97149 1.94955C5.81121 1.14576 7.2727 0.923589 7.87446 0.872252C7.97755 0.855113 8.06362 0.837974 8.16679 0.837974C9.31892 0.688757 10.4849 0.677279 11.6398 0.803854C13.273 0.991987 15.0269 1.47077 16.8149 2.4454C16.8149 2.4454 15.4566 1.16298 12.5337 0.273812L12.7744 0.000221033C12.7744 0.000221033 15.1299 -0.0511952 17.6057 1.7957C17.6057 1.7957 20.0816 6.25861 20.0816 11.7646C20.0816 11.7646 18.6202 14.244 14.8204 14.3636V14.3638ZM6.82565 6.37826C5.84566 6.37826 5.07208 7.23323 5.07208 8.27626C5.07208 9.31928 5.86284 10.1743 6.82565 10.1743C7.80573 10.1743 8.57931 9.31936 8.57931 8.27626C8.59657 7.23323 7.80557 6.37826 6.82565 6.37826ZM13.1012 6.37826C12.1211 6.37826 11.3474 7.23323 11.3474 8.27626C11.3474 9.31928 12.1384 10.1743 13.1012 10.1743C14.0812 10.1743 14.8548 9.31936 14.8548 8.27626C14.8548 7.23315 14.0812 6.37826 13.1012 6.37826Z" fill="#D9DBE0"/>
</svg>
