<svg width="21" height="14" viewBox="0 0 21 14" fill="none" xmlns="http://www.w3.org/2000/svg">
<path d="M12.6 0.9C12.6 0.40294 12.1971 0 11.7 0H0.9C0.40294 0 0 0.40294 0 0.9C0 1.39705 0.40294 1.8 0.9 1.8H11.7C12.1971 1.8 12.6 1.39706 12.6 0.9Z" fill="#8D9299"/>
<path d="M15.2636 3.93643C14.9121 3.58495 14.9121 3.01511 15.2636 2.66363C15.6151 2.31216 16.1849 2.31216 16.5364 2.66363L20.1364 6.26363C20.4879 6.61513 20.4879 7.18493 20.1364 7.53643L16.5364 11.1364C16.1849 11.4879 15.6151 11.4879 15.2636 11.1364C14.9121 10.7849 14.9121 10.2151 15.2636 9.86363L18.2272 6.90003L15.2636 3.93643Z" fill="#8D9299"/>
<path d="M11.6999 6C12.197 6 12.5999 6.4029 12.5999 6.9C12.5999 7.3971 12.197 7.8 11.6999 7.8H3.2999C2.80284 7.8 2.3999 7.3971 2.3999 6.9C2.3999 6.4029 2.80284 6 3.2999 6H11.6999Z" fill="#8D9299"/>
<path d="M11.7 12C12.1971 12 12.6 12.4029 12.6 12.9C12.6 13.3971 12.1971 13.8 11.7 13.8H0.9C0.40294 13.8 0 13.3971 0 12.9C0 12.4029 0.40294 12 0.9 12H11.7Z" fill="#8D9299"/>
</svg>
