<svg width="17" height="12" viewBox="0 0 17 12" fill="none" xmlns="http://www.w3.org/2000/svg">
<path d="M8.5 0C8.55831 1.09534e-05 13.8232 0.00212591 15.1416 0.358398C15.873 0.555606 16.4491 1.13652 16.6445 1.87402C16.9998 3.21099 17 6 17 6C17 6 16.9998 8.78891 16.6445 10.126C16.4491 10.8635 15.8729 11.4443 15.1416 11.6416C13.8232 11.9978 8.55831 12 8.5 12C8.5 12 3.18316 11.9998 1.85742 11.6416C1.12616 11.4443 0.549947 10.8635 0.354492 10.126C-0.000669345 8.78893 0 6.00002 0 6C0 5.99998 -0.000679213 3.21098 0.354492 1.87402C0.549948 1.13652 1.12615 0.555608 1.85742 0.358398C3.18316 0.000140399 8.5 0 8.5 0ZM6.76074 8.53223L11.2041 6L6.76074 3.46777V8.53223Z" fill="#D9DBE0"/>
</svg>
