<svg width="18" height="18" viewBox="0 0 18 18" fill="none" xmlns="http://www.w3.org/2000/svg">
<path d="M12.75 0C15.3734 0 17.5 2.12665 17.5 4.75V12.75C17.5 15.3734 15.3734 17.5 12.75 17.5H4.75C2.12665 17.5 0 15.3734 0 12.75V4.75C0 2.12665 2.12665 0 4.75 0H12.75ZM7.64746 5.61426C7.41637 5.46983 7.12512 5.46178 6.88672 5.59375C6.64827 5.72593 6.5 5.97737 6.5 6.25V11.25C6.50003 11.5226 6.64827 11.7742 6.88672 11.9062C7.12509 12.0382 7.4164 12.0302 7.64746 11.8857L11.6475 9.38574C11.8666 9.24876 12 9.00857 12 8.75C12 8.49144 11.8667 8.25132 11.6475 8.11426L7.64746 5.61426Z" fill="#121314"/>
</svg>
