<svg width="12" height="12" viewBox="0 0 12 12" fill="none" xmlns="http://www.w3.org/2000/svg">
<path fill-rule="evenodd" clip-rule="evenodd" d="M7.18929 0.756758C8.1983 -0.252253 9.83423 -0.252253 10.8432 0.756758C11.8523 1.76577 11.8523 3.4017 10.8432 4.41071L3.82969 11.4243C3.71716 11.5368 3.56455 11.6 3.40542 11.6H0.6C0.268629 11.6 0 11.3314 0 11V8.19458C0 8.03545 0.0632141 7.88283 0.175736 7.77031L7.18929 0.756758ZM9.99471 1.60529C9.45433 1.0649 8.5782 1.0649 8.03782 1.60529L7.23471 2.40839L9.19161 4.36529L9.99471 3.56218C10.5351 3.0218 10.5351 2.14567 9.99471 1.60529ZM8.34308 5.21382L6.38618 3.25692L1.2 8.4431V10.4H3.15689L8.34308 5.21382Z" fill="currentColor"/>
</svg>
