<svg width="25" height="17" viewBox="0 0 25 17" fill="none" xmlns="http://www.w3.org/2000/svg">
<path fill-rule="evenodd" clip-rule="evenodd" d="M-3.74669e-08 8.0501C-5.81593e-08 7.4702 0.470101 7.0001 1.05 7.0001L23.45 7.0001C24.0299 7.0001 24.5 7.4702 24.5 8.0501C24.5 8.63 24.0299 9.1001 23.45 9.1001L1.05 9.1001C0.470101 9.1001 -1.67745e-08 8.63 -3.74669e-08 8.0501Z" fill="#47494D"/>
<path fill-rule="evenodd" clip-rule="evenodd" d="M-3.74669e-08 1.0501C-5.81593e-08 0.470198 0.470101 9.72496e-05 1.05 9.72186e-05L23.45 9.60191e-05C24.0299 9.59881e-05 24.5 0.470197 24.5 1.0501C24.5 1.63 24.0299 2.1001 23.45 2.1001L1.05 2.1001C0.470101 2.1001 -1.67745e-08 1.63 -3.74669e-08 1.0501Z" fill="#47494D"/>
<path fill-rule="evenodd" clip-rule="evenodd" d="M-5.24537e-08 15.0501C-8.1423e-08 14.4702 0.470101 14.0001 1.05 14.0001L23.45 14.0001C24.0299 14.0001 24.5 14.4702 24.5 15.0501C24.5 15.63 24.0299 16.1001 23.45 16.1001L1.05 16.1001C0.470101 16.1001 -2.34843e-08 15.63 -5.24537e-08 15.0501Z" fill="#47494D"/>
</svg>
