<svg width="17" height="17" viewBox="0 0 17 17" fill="none" xmlns="http://www.w3.org/2000/svg">
<path fill-rule="evenodd" clip-rule="evenodd" d="M14.1343 4.93708L11.3786 4.38598C10.9724 4.30475 10.5773 4.56817 10.4961 4.97434C10.4148 5.38052 10.6783 5.77563 11.0844 5.85686L15.4475 6.72938C15.6532 6.77051 15.8667 6.72362 16.0362 6.60009C16.2057 6.47657 16.3158 6.28769 16.3397 6.07928L16.8671 1.47433C16.9143 1.06281 16.6189 0.690986 16.2073 0.643856C15.7958 0.596716 15.424 0.892116 15.3769 1.30364L15.1073 3.65689C12.9892 0.491176 8.8796 -0.878398 5.19831 0.588146C0.965492 2.27444 -1.0986 7.07199 0.588482 11.3038C2.27552 15.5356 7.07447 17.5988 11.3072 15.9126C13.3952 15.0807 14.9563 13.4904 15.7984 11.5864C15.9659 11.2076 15.7947 10.7647 15.4159 10.5972C15.037 10.4296 14.5941 10.6009 14.4266 10.9797C13.7369 12.5392 12.4609 13.8383 10.752 14.5191C7.28854 15.8989 3.36204 14.2105 1.98184 10.7484C0.601702 7.28644 2.2901 3.36138 5.75345 1.98165C8.9329 0.715006 12.5025 2.03397 14.1343 4.93708Z" fill="#8D9299"/>
</svg>
