<svg width="21" height="21" viewBox="0 0 21 21" fill="none" xmlns="http://www.w3.org/2000/svg">
<path d="M9.89941 0C15.367 0 19.7998 4.43277 19.7998 9.90039C19.7998 12.31 18.9378 14.5177 17.5068 16.2344L20.7363 19.4639C21.0878 19.8153 21.0876 20.3848 20.7363 20.7363C20.3848 21.0878 19.8154 21.0878 19.4639 20.7363L16.2344 17.5068C14.5176 18.9381 12.3093 19.8008 9.89941 19.8008C4.43198 19.8006 4.63878e-05 15.3678 0 9.90039C0 4.43288 4.43195 0.000184509 9.89941 0ZM9.89941 1.80078C5.42606 1.80097 1.7998 5.42699 1.7998 9.90039C1.79985 14.3737 5.42609 17.9998 9.89941 18C14.3729 18 18 14.3739 18 9.90039C18 5.42688 14.3729 1.80078 9.89941 1.80078ZM9.89941 3.60059C13.3788 3.60059 16.2002 6.421 16.2002 9.90039C16.2001 10.3974 15.7968 10.7998 15.2998 10.7998C14.8027 10.7998 14.3995 10.3974 14.3994 9.90039C14.3994 7.41511 12.3847 5.40039 9.89941 5.40039C9.40247 5.40021 9 4.99695 9 4.5C9.00015 4.00318 9.40256 3.60077 9.89941 3.60059Z" fill="#47494D"/>
</svg>
