<svg width="21" height="14" viewBox="0 0 21 14" fill="none" xmlns="http://www.w3.org/2000/svg">
<path d="M7.80005 0.9C7.80005 0.40294 8.20299 0 8.70005 0H19.5C19.9971 0 20.4 0.40294 20.4 0.9C20.4 1.39705 19.9971 1.8 19.5 1.8H8.70005C8.20299 1.8 7.80005 1.39706 7.80005 0.9Z" fill="#8D9299"/>
<path d="M5.1364 3.93643C5.48787 3.58495 5.48787 3.01511 5.1364 2.66363C4.78492 2.31216 4.21508 2.31216 3.8636 2.66363L0.263602 6.26363C-0.0878675 6.61513 -0.0878675 7.18493 0.263602 7.53643L3.8636 11.1364C4.21508 11.4879 4.78492 11.4879 5.1364 11.1364C5.48787 10.7849 5.48787 10.2151 5.1364 9.86363L2.17279 6.90003L5.1364 3.93643Z" fill="#8D9299"/>
<path d="M8.70005 6C8.20299 6 7.80005 6.4029 7.80005 6.9C7.80005 7.3971 8.20299 7.8 8.70005 7.8H17.1C17.5971 7.8 18 7.3971 18 6.9C18 6.4029 17.5971 6 17.1 6H8.70005Z" fill="#8D9299"/>
<path d="M8.70005 12C8.20299 12 7.80005 12.4029 7.80005 12.9C7.80005 13.3971 8.20299 13.8 8.70005 13.8H19.5C19.9971 13.8 20.4 13.3971 20.4 12.9C20.4 12.4029 19.9971 12 19.5 12H8.70005Z" fill="#8D9299"/>
</svg>
