<svg width="18" height="18" viewBox="0 0 18 18" fill="none" xmlns="http://www.w3.org/2000/svg">
<path d="M12.75 0C15.3734 0 17.5 2.12665 17.5 4.75V12.75C17.5 15.3734 15.3734 17.5 12.75 17.5H4.75C2.12665 17.5 0 15.3734 0 12.75V4.75C0 2.12665 2.12665 0 4.75 0H12.75ZM4.75 1.5C2.95507 1.5 1.5 2.95507 1.5 4.75V12.75C1.5 14.5449 2.95507 16 4.75 16H12.75C14.5449 16 16 14.5449 16 12.75V4.75C16 2.95507 14.5449 1.5 12.75 1.5H4.75ZM6.88672 5.59375C7.12512 5.46178 7.41637 5.46983 7.64746 5.61426L11.6475 8.11426C11.8667 8.25132 12 8.49144 12 8.75C12 9.0086 11.8667 9.2487 11.6475 9.3857L7.64746 11.8857C7.41637 12.0302 7.12512 12.0382 6.88672 11.9062C6.64825 11.7741 6.5 11.5226 6.5 11.25V6.25C6.5 5.97736 6.64825 5.72592 6.88672 5.59375Z" fill="#121314"/>
</svg>
