<svg width="17" height="17" viewBox="0 0 17 17" fill="none" xmlns="http://www.w3.org/2000/svg">
<path fill-rule="evenodd" clip-rule="evenodd" d="M0 1.75C0 0.783502 0.783502 0 1.75 0H14.75C15.7165 0 16.5 0.783502 16.5 1.75V14.75C16.5 15.7165 15.7165 16.5 14.75 16.5H1.75C0.783502 16.5 0 15.7165 0 14.75V1.75ZM1.75 1.5C1.61193 1.5 1.5 1.61193 1.5 1.75V14.75C1.5 14.8881 1.61193 15 1.75 15H14.75C14.8881 15 15 14.8881 15 14.75V1.75C15 1.61193 14.8881 1.5 14.75 1.5H1.75Z" fill="#D9DBE0"/>
<path fill-rule="evenodd" clip-rule="evenodd" d="M11.712 5.65921C12.0383 5.91438 12.096 6.38575 11.8408 6.71203L8.32156 11.212C8.19016 11.38 7.99344 11.4842 7.78062 11.4983C7.5678 11.5125 7.35901 11.4354 7.20649 11.2863L4.72572 8.86118C4.42952 8.57163 4.42414 8.09678 4.71369 7.80059C5.00324 7.50439 5.47809 7.49901 5.77428 7.78856L7.65603 9.62811L10.6592 5.78798C10.9144 5.46169 11.3857 5.40404 11.712 5.65921Z" fill="#D9DBE0"/>
</svg>
