<svg width="88" height="88" viewBox="0 0 88 88" fill="none" xmlns="http://www.w3.org/2000/svg">
<path fill-rule="evenodd" clip-rule="evenodd" d="M43.75 7.5C23.7297 7.5 7.5 23.7297 7.5 43.75C7.5 63.7703 23.7297 80 43.75 80C63.7703 80 80 63.7703 80 43.75C80 23.7297 63.7703 7.5 43.75 7.5ZM0 43.75C0 19.5875 19.5875 0 43.75 0C67.9125 0 87.5 19.5875 87.5 43.75C87.5 67.9125 67.9125 87.5 43.75 87.5C19.5875 87.5 0 67.9125 0 43.75Z" fill="currentColor"/>
<path fill-rule="evenodd" clip-rule="evenodd" d="M61.0601 30.7961C62.6916 32.072 62.9798 34.4288 61.7039 36.0602L44.1078 58.5602C43.4508 59.4003 42.4672 59.9209 41.4031 59.9918C40.339 60.0626 39.295 59.6771 38.5324 58.9316L26.1286 46.8059C24.6476 45.3582 24.6207 42.9839 26.0685 41.503C27.5162 40.022 29.8904 39.9951 31.3714 41.4428L40.7802 50.6406L55.7961 31.4399C57.0719 29.8085 59.4287 29.5202 61.0601 30.7961Z" fill="currentColor"/>
</svg>
