<svg width="10" height="10" viewBox="0 0 10 10" fill="none" xmlns="http://www.w3.org/2000/svg">
<path d="M1.02427 0.175732C0.78995 -0.0585775 0.41005 -0.0585775 0.17574 0.175732C-0.05858 0.410042 -0.05858 0.789943 0.17574 1.02426L3.75147 4.59999L0.17574 8.17577C-0.05858 8.41007 -0.05858 8.78997 0.17574 9.02427C0.41005 9.25857 0.78995 9.25857 1.02427 9.02427L4.6 5.44852L8.0953 8.94387C8.3296 9.17817 8.7095 9.17817 8.9439 8.94387C9.1782 8.70957 9.1782 8.32967 8.9439 8.09537L5.44853 4.59999L8.9439 1.10466C9.1782 0.870353 9.1782 0.490453 8.9439 0.256133C8.7095 0.0218227 8.3296 0.0218227 8.0953 0.256133L4.6 3.75147L1.02427 0.175732Z" fill="white"/>
</svg>
