<svg width="19" height="21" viewBox="0 0 19 21" fill="none" xmlns="http://www.w3.org/2000/svg">
<path fill-rule="evenodd" clip-rule="evenodd" d="M3.6 5.7C3.6 2.55198 6.15198 0 9.3 0C12.448 0 15 2.55198 15 5.7V6.09002C17.054 6.50696 18.6 8.32294 18.6 10.5V16.5C18.6 18.9853 16.5853 21 14.1 21H4.5C2.01472 21 0 18.9853 0 16.5V10.5C0 8.32294 1.54598 6.50696 3.6 6.09002V5.7ZM5.4 6H13.2V5.7C13.2 3.54609 11.4539 1.8 9.3 1.8C7.14609 1.8 5.4 3.54609 5.4 5.7V6ZM4.5 7.8C3.00883 7.8 1.8 9.00883 1.8 10.5V16.5C1.8 17.9912 3.00883 19.2 4.5 19.2H14.1C15.5912 19.2 16.8 17.9912 16.8 16.5V10.5C16.8 9.00883 15.5912 7.8 14.1 7.8H4.5ZM9.3 12C8.47157 12 7.8 12.6716 7.8 13.5C7.8 14.3284 8.47157 15 9.3 15C10.1284 15 10.8 14.3284 10.8 13.5C10.8 12.6716 10.1284 12 9.3 12ZM6 13.5C6 11.6775 7.47746 10.2 9.3 10.2C11.1225 10.2 12.6 11.6775 12.6 13.5C12.6 15.3225 11.1225 16.8 9.3 16.8C7.47746 16.8 6 15.3225 6 13.5Z" fill="#2E6FF2"/>
</svg>
