<svg width="14" height="14" viewBox="0 0 14 14" fill="none" xmlns="http://www.w3.org/2000/svg">
<path fill-rule="evenodd" clip-rule="evenodd" d="M6.75 0C7.1642 0 7.5 0.33579 7.5 0.75V7.8992L10.2116 5.10289C10.4999 4.80553 10.9747 4.79822 11.2721 5.08657C11.5695 5.37493 11.5768 5.84974 11.2884 6.14711L7.2884 10.2721C7.1472 10.4178 6.9529 10.5 6.75 10.5C6.54709 10.5 6.35283 10.4178 6.21158 10.2721L2.21158 6.14711C1.92322 5.84975 1.93053 5.37493 2.22789 5.08658C2.52526 4.79822 3.00007 4.80553 3.28843 5.10289L6 7.8992V0.75C6 0.33579 6.33579 0 6.75 0Z" fill="#8D9299"/>
<path fill-rule="evenodd" clip-rule="evenodd" d="M0.21967 13.7803C0.0790201 13.6397 0 13.4489 0 13.25V11.25C0 10.8358 0.33579 10.5 0.75 10.5C1.16421 10.5 1.5 10.8358 1.5 11.25V12.5H12V11.25C12 10.8358 12.3358 10.5 12.75 10.5C13.1642 10.5 13.5 10.8358 13.5 11.25V13.25C13.5 13.6642 13.1642 14 12.75 14H0.75C0.55109 14 0.36032 13.921 0.21967 13.7803Z" fill="#8D9299"/>
</svg>
