<svg width="17" height="17" viewBox="0 0 17 17" fill="none" xmlns="http://www.w3.org/2000/svg">
<path d="M14.75 0C15.7165 0 16.5 0.783502 16.5 1.75V14.75C16.5 15.7165 15.7165 16.5 14.75 16.5H1.75C0.783502 16.5 0 15.7165 0 14.75V1.75C0 0.783502 0.783502 0 1.75 0H14.75ZM11.7119 5.65918C11.3856 5.40409 10.9143 5.46183 10.6592 5.78809L7.65625 9.62793L5.77441 7.78809C5.47821 7.4987 5.00337 7.50464 4.71387 7.80078C4.42432 8.09698 4.42939 8.57178 4.72559 8.86133L7.20605 11.2861C7.3585 11.4352 7.56756 11.5121 7.78027 11.498C7.99307 11.4839 8.18989 11.3799 8.32129 11.2119L11.8408 6.71191C12.0959 6.38563 12.0382 5.91433 11.7119 5.65918Z" fill="#2E6FF2"/>
</svg>
