<svg width="18" height="17" viewBox="0 0 18 17" fill="none" xmlns="http://www.w3.org/2000/svg">
<path fill-rule="evenodd" clip-rule="evenodd" d="M9.8535 1.8918C9.2106 1.3694 8.28942 1.3694 7.64646 1.8918L2.14646 6.36055C1.73747 6.69286 1.5 7.19178 1.5 7.71875V13.5288C1.5 14.4953 2.2835 15.2788 3.25 15.2788H5.5V10.5288C5.5 8.73391 6.95507 7.27883 8.75 7.27883C10.5449 7.27883 12 8.73391 12 10.5288V15.2788H14.25C15.2165 15.2788 16 14.4953 16 13.5288V7.71875C16 7.19178 15.7625 6.69286 15.3535 6.36055L9.8535 1.8918ZM10.5 15.2788V10.5288C10.5 9.56231 9.7165 8.77881 8.75 8.77881C7.7835 8.77881 7 9.56231 7 10.5288V15.2788H10.5ZM6.70057 0.727628C7.89463 -0.242543 9.6054 -0.242543 10.7994 0.727628L16.2994 5.19638C17.059 5.81352 17.5 6.74008 17.5 7.71875V13.5288C17.5 15.3237 16.0449 16.7788 14.25 16.7788H3.25C1.45507 16.7788 0 15.3237 0 13.5288V7.71875C0 6.74008 0.44102 5.81352 1.20057 5.19638L6.70057 0.727628Z" fill="#D9DBE0"/>
</svg>
