<svg width="14" height="14" viewBox="0 0 14 14" fill="none" xmlns="http://www.w3.org/2000/svg">
<path fill-rule="evenodd" clip-rule="evenodd" d="M0 4.2C0 2.54315 1.34315 1.2 3 1.2H11C12.6569 1.2 14 2.54315 14 4.2V11C14 12.6569 12.6569 14 11 14H3C1.34315 14 0 12.6569 0 11V4.2ZM3 2.4C2.00589 2.4 1.2 3.20589 1.2 4.2V11C1.2 11.9941 2.00589 12.8 3 12.8H11C11.9941 12.8 12.8 11.9941 12.8 11V4.2C12.8 3.20589 11.9941 2.4 11 2.4H3Z" fill="#8D9299"/>
<path fill-rule="evenodd" clip-rule="evenodd" d="M4.6 0C4.93137 0 5.2 0.26863 5.2 0.6V3C5.2 3.33137 4.93137 3.6 4.6 3.6C4.26863 3.6 4 3.33137 4 3V0.6C4 0.26863 4.26863 0 4.6 0Z" fill="#8D9299"/>
<path fill-rule="evenodd" clip-rule="evenodd" d="M9.40005 0C9.73145 0 10 0.26863 10 0.6V3C10 3.33137 9.73145 3.6 9.40005 3.6C9.06865 3.6 8.80005 3.33137 8.80005 3V0.6C8.80005 0.26863 9.06865 0 9.40005 0Z" fill="#8D9299"/>
<path fill-rule="evenodd" clip-rule="evenodd" d="M0 9.4C0 9.0686 0.26863 8.8 0.6 8.8H13.4C13.7314 8.8 14 9.0686 14 9.4C14 9.7314 13.7314 10 13.4 10H0.6C0.26863 10 0 9.7314 0 9.4Z" fill="#8D9299"/>
<path d="M5.40005 6.19999C5.40005 6.64182 5.04188 6.99999 4.60005 6.99999C4.15822 6.99999 3.80005 6.64182 3.80005 6.19999C3.80005 5.75816 4.15822 5.39999 4.60005 5.39999C5.04188 5.39999 5.40005 5.75816 5.40005 6.19999Z" fill="#8D9299"/>
<path d="M10.2001 6.19999C10.2001 6.64182 9.8419 6.99999 9.4001 6.99999C8.95827 6.99999 8.6001 6.64182 8.6001 6.19999C8.6001 5.75816 8.95827 5.39999 9.4001 5.39999C9.8419 5.39999 10.2001 5.75816 10.2001 6.19999Z" fill="#8D9299"/>
<path d="M7.79995 6.19999C7.79995 6.64182 7.44178 6.99999 6.99995 6.99999C6.55812 6.99999 6.19995 6.64182 6.19995 6.19999C6.19995 5.75816 6.55812 5.39999 6.99995 5.39999C7.44178 5.39999 7.79995 5.75816 7.79995 6.19999Z" fill="#8D9299"/>
</svg>
