<svg width="16" height="15" viewBox="0 0 16 15" fill="none" xmlns="http://www.w3.org/2000/svg">
<path d="M7.84789 14.9222C7.77188 14.8499 7.50837 14.2727 7.01209 13.0954L6.28811 11.3677H4.13391C2.88696 11.3677 1.87701 11.3498 1.7385 11.3227C1.3809 11.255 0.898132 10.9979 0.638845 10.7363C0.375334 10.4703 0.120607 10.0056 0.048986 9.66276C0.0133444 9.50046 0 8.24642 0 5.67099C0 2.44126 0.00878367 1.87749 0.0668912 1.64751C0.281416 0.817448 0.965192 0.18139 1.78765 0.0506323C2.18967 -0.0168774 13.8144 -0.0168774 14.2122 0.0506323C15.0122 0.176957 15.6737 0.75437 15.9105 1.52119C15.9954 1.80537 16 1.93613 16 5.65735C16 8.07952 15.9819 9.56814 15.9507 9.6943C15.8301 10.2311 15.3742 10.8264 14.8916 11.0881C14.3955 11.3543 14.2747 11.3677 11.906 11.3677H9.75632L9.03234 13.0954C8.62998 14.0425 8.27255 14.8499 8.23218 14.8905C8.09823 15.0259 7.97306 15.0349 7.84789 14.9222ZM13.4076 8.77422C13.5417 8.6975 13.7161 8.55311 13.7965 8.44485C14.0602 8.09316 14.0781 7.9624 14.0781 6.21669V4.64692H13.1396V4.93111L13.0412 4.84093C12.7953 4.61538 12.4647 4.53867 12.0848 4.61538C11.3696 4.76421 10.9943 5.27854 10.9943 6.10844C10.9943 6.80314 11.182 7.15041 11.6914 7.40306C11.9195 7.51574 12.0357 7.54728 12.2367 7.54728C12.5585 7.54285 12.8267 7.47057 12.9831 7.34441L13.1081 7.24502L13.0769 7.44363C13.0144 7.83607 12.8088 8.03008 12.4512 8.03008H12.2456V8.94112L12.7059 8.92305C13.1083 8.90941 13.1887 8.89151 13.4076 8.77422ZM4.31718 7.38942C4.57191 7.27213 4.81769 7.01948 4.9339 6.77143C5.05907 6.48724 5.06363 5.81521 4.94285 5.46335C4.8535 5.1974 4.58086 4.86343 4.36178 4.74631C3.90604 4.50713 3.32496 4.5477 3.00774 4.84093L2.90487 4.93128V3.42919H1.92177L1.93055 5.4272L1.94407 7.42096L2.42666 7.4346C2.88257 7.44823 2.90487 7.44363 2.90487 7.35328C2.90487 7.24059 2.91838 7.24059 3.12395 7.37595C3.43679 7.58786 3.89253 7.59229 4.31718 7.38942ZM9.55074 7.4346C9.82338 7.33538 10.1943 7.01522 10.3418 6.74893C10.8289 5.89193 10.2747 4.85456 9.22 4.64692C8.55852 4.51616 7.84333 4.84093 7.53066 5.41834C7.43219 5.60774 7.39654 5.73407 7.38303 6.00479C7.36529 6.30688 7.37864 6.37899 7.4859 6.6226C7.61546 6.91583 7.91039 7.23616 8.17863 7.37595C8.56748 7.57882 9.10379 7.60149 9.55074 7.4346ZM6.72611 4.35387L6.57865 4.05161C6.37307 3.63223 6.04673 3.40651 5.51042 3.31633L5.31836 3.28479V3.78549C5.31836 4.2139 5.32731 4.28619 5.38981 4.28619C5.43001 4.28619 5.52832 4.35387 5.61329 4.43962L5.76531 4.59288V7.44363H6.7528L6.72611 4.35387Z" fill="#D9DBE0"/>
<path d="M12.3483 6.6092C12.0534 6.48287 11.9372 6.07696 12.1115 5.78817C12.3531 5.38686 12.9161 5.42283 13.1037 5.85125C13.2422 6.17175 13.1037 6.50077 12.7686 6.62727C12.6031 6.69034 12.5225 6.68591 12.3483 6.6092ZM3.18204 6.55959C2.8513 6.32944 2.88695 5.78817 3.24454 5.61684C3.73609 5.38226 4.20551 5.87392 3.95518 6.36115C3.83001 6.6092 3.40535 6.71745 3.18204 6.55959ZM8.63891 6.58669C8.57236 6.54647 8.51464 6.49296 8.46929 6.42944C8.42395 6.36591 8.39193 6.29371 8.37519 6.21726C8.35846 6.14081 8.35737 6.06172 8.37199 5.98483C8.38661 5.90794 8.41662 5.83487 8.4602 5.7701C8.58976 5.57626 8.72827 5.50415 8.9786 5.50415C9.14397 5.50415 9.19752 5.52665 9.34515 5.67991C9.49262 5.82891 9.51931 5.88296 9.51931 6.04985C9.51931 6.53248 9.03232 6.83014 8.63891 6.58669Z" fill="#D9DBE0"/>
</svg>
