<svg width="21" height="17" viewBox="0 0 21 17" fill="none" xmlns="http://www.w3.org/2000/svg">
<path d="M19.25 14C19.8299 14 20.3008 14.4699 20.3008 15.0498C20.3008 15.6297 19.8299 16.0996 19.25 16.0996H1.05078C0.470882 16.0996 2.89694e-08 15.6297 0 15.0498C6.9557e-07 14.4699 0.470883 14 1.05078 14H19.25ZM15.0508 7C15.6305 7.00021 16.1006 7.47004 16.1006 8.0498C16.1006 8.62957 15.6305 9.0994 15.0508 9.09961H1.05078C0.470882 9.09961 2.06924e-08 8.6297 0 8.0498C1.02586e-06 7.46991 0.470883 7 1.05078 7H15.0508ZM19.25 0C19.8299 -3.10515e-08 20.3008 0.469906 20.3008 1.0498C20.3008 1.6297 19.8299 2.09961 19.25 2.09961H1.05078C0.470882 2.09961 2.06924e-08 1.6297 0 1.0498C1.07416e-06 0.469907 0.470883 3.10515e-08 1.05078 0H19.25Z" fill="#47494D"/>
</svg>
