<svg width="25" height="23" viewBox="0 0 25 23" fill="none" xmlns="http://www.w3.org/2000/svg">
<path fill-rule="evenodd" clip-rule="evenodd" d="M3.15 2.1C2.5701 2.1 2.1 2.5701 2.1 3.15V18.55C2.1 19.5165 2.8835 20.3 3.85 20.3H20.65C21.6165 20.3 22.4 19.5165 22.4 18.55V5.95C22.4 5.3701 21.9299 4.9 21.35 4.9H14C13.0085 4.9 12.0749 4.43319 11.48 3.64L10.64 2.52C10.4417 2.2556 10.1305 2.1 9.8 2.1H3.15ZM0 3.15C0 1.4103 1.4103 0 3.15 0H9.8C10.7915 0 11.7251 0.46681 12.32 1.26L13.16 2.38C13.3583 2.6444 13.6695 2.8 14 2.8H21.35C23.0897 2.8 24.5 4.2103 24.5 5.95V18.55C24.5 20.6763 22.7763 22.4 20.65 22.4H3.85C1.7237 22.4 0 20.6763 0 18.55V3.15Z" fill="#8D9299"/>
<path fill-rule="evenodd" clip-rule="evenodd" d="M12.2502 7.70001C12.8301 7.70001 13.3002 8.17011 13.3002 8.75001V13.3631L15.0407 11.7677C15.4682 11.3758 16.1324 11.4047 16.5242 11.8322C16.9161 12.2596 16.8872 12.9238 16.4597 13.3157L12.9597 16.524C12.5583 16.892 11.9421 16.892 11.5407 16.524L8.04069 13.3157C7.61322 12.9238 7.58434 12.2596 7.97619 11.8322C8.368 11.4047 9.0322 11.3758 9.4597 11.7677L11.2002 13.3631V8.75001C11.2002 8.17011 11.6703 7.70001 12.2502 7.70001Z" fill="#8D9299"/>
</svg>
