<svg width="52" height="44" viewBox="0 0 52 44" fill="none" xmlns="http://www.w3.org/2000/svg">
<path d="M41.6806 4.1615H39.0648V2.7511C39.0648 1.2341 37.8307 0 36.3137 0C34.7967 0 33.5667 1.2341 33.5667 2.7511V4.1615H30.4179V2.7511C30.4179 1.2341 29.1838 0 27.6709 0C26.158 0 24.9198 1.2341 24.9198 2.7511V4.1615H21.7751V2.7511C21.7751 1.2341 20.541 0 19.024 0C17.507 0 16.277 1.2341 16.277 2.7511V4.1615H13.1282V2.7511C13.1282 1.2341 11.8941 0 10.3812 0C8.8683 0 7.6301 1.2341 7.6301 2.7511V4.1615H5.0143C2.2509 4.1615 0 6.4124 0 9.1758V34.8418C0 37.6052 2.2509 39.852 5.0143 39.852H41.6806C44.444 39.852 46.6908 37.6052 46.6908 34.8418V9.1758C46.6908 6.4124 44.444 4.1615 41.6806 4.1615ZM35.2067 4.1615V2.7511C35.2067 2.1402 35.7028 1.64 36.3137 1.64C36.9246 1.64 37.4248 2.1402 37.4248 2.7511V7.216C37.4248 7.8269 36.9246 8.323 36.3137 8.323C35.7028 8.323 35.2067 7.8269 35.2067 7.216V4.1615ZM26.5598 4.1615V2.7511C26.5598 2.1402 27.0559 1.64 27.6709 1.64C28.2859 1.64 28.7779 2.1402 28.7779 2.7511V7.216C28.7779 7.8269 28.2818 8.323 27.6709 8.323C27.06 8.323 26.5598 7.8269 26.5598 7.216V4.1615ZM17.917 4.1615V2.7511C17.917 2.1402 18.4131 1.64 19.024 1.64C19.6349 1.64 20.1351 2.1402 20.1351 2.7511V7.216C20.1351 7.8269 19.6349 8.323 19.024 8.323C18.4131 8.323 17.917 7.8269 17.917 7.216V4.1615ZM9.2701 4.1615V2.7511C9.2701 2.1402 9.7662 1.64 10.3812 1.64C10.9962 1.64 11.4882 2.1402 11.4882 2.7511V7.216C11.4882 7.8269 10.9921 8.323 10.3812 8.323C9.7703 8.323 9.2701 7.8269 9.2701 7.216V4.1615ZM45.0508 34.8418C45.0508 36.6991 43.5379 38.212 41.6806 38.212H5.0143C3.1529 38.212 1.64 36.6991 1.64 34.8418V9.1758C1.64 7.3144 3.1529 5.8015 5.0143 5.8015H7.6301V7.216C7.6301 8.7289 8.8642 9.963 10.3812 9.963C11.8982 9.963 13.1282 8.7289 13.1282 7.216V5.8015H16.277V7.216C16.277 8.7289 17.507 9.963 19.024 9.963C20.541 9.963 21.7751 8.7289 21.7751 7.216V5.8015H24.9198V7.216C24.9198 8.7289 26.1539 9.963 27.6709 9.963C29.1879 9.963 30.4179 8.7289 30.4179 7.216V5.8015H33.5667V7.216C33.5667 8.7289 34.7967 9.963 36.3137 9.963C37.8307 9.963 39.0648 8.7289 39.0648 7.216V5.8015H41.6806C43.5379 5.8015 45.0508 7.3144 45.0508 9.1758V34.8418Z" fill="#2E6FF2"/>
<path d="M39.7003 12.4353H5.90398C5.45298 12.4353 5.08398 12.8043 5.08398 13.2553C5.08398 13.7063 5.45298 14.0753 5.90398 14.0753H39.7003C40.1513 14.0753 40.5203 13.7063 40.5203 13.2553C40.5203 12.8043 40.1513 12.4353 39.7003 12.4353Z" fill="#2E6FF2"/>
<path d="M24.4196 19.0527L25.7562 21.7628C25.9284 22.1154 26.2646 22.3614 26.6541 22.4147L29.6471 22.8493C30.627 22.9928 31.0165 24.1941 30.3072 24.887L28.1424 26.9985C27.8595 27.2732 27.7324 27.6668 27.798 28.0563L28.3105 31.037C28.4786 32.0128 27.4536 32.7549 26.5762 32.2957L23.903 30.8894C23.5545 30.7049 23.1404 30.7049 22.7919 30.8894L20.1187 32.2957C19.2413 32.7549 18.2204 32.0128 18.3844 31.037L18.8969 28.0563C18.9625 27.6709 18.8354 27.2732 18.5525 26.9985L16.3877 24.887C15.6784 24.1941 16.072 22.9928 17.0478 22.8493L20.0408 22.4147C20.4303 22.3573 20.7665 22.1154 20.9387 21.7628L22.2753 19.0527C22.714 18.1671 23.9809 18.1671 24.4155 19.0527H24.4196Z" fill="#B5CEFF"/>
<path d="M42.1726 42.5006C46.656 42.5006 50.2906 38.866 50.2906 34.3826C50.2906 29.8991 46.656 26.2646 42.1726 26.2646C37.6891 26.2646 34.0546 29.8991 34.0546 34.3826C34.0546 38.866 37.6891 42.5006 42.1726 42.5006Z" fill="#B5CEFF"/>
<path d="M42.1726 43.3206C37.2444 43.3206 33.2346 39.3108 33.2346 34.3826C33.2346 29.4544 37.2444 25.4446 42.1726 25.4446C47.1008 25.4446 51.1106 29.4544 51.1106 34.3826C51.1106 39.3108 47.1008 43.3206 42.1726 43.3206ZM42.1726 27.0887C38.1505 27.0887 34.8746 30.3605 34.8746 34.3867C34.8746 38.4129 38.1464 41.6847 42.1726 41.6847C46.1988 41.6847 49.4706 38.4129 49.4706 34.3867C49.4706 30.3605 46.1988 27.0887 42.1726 27.0887Z" fill="#2E6FF2"/>
<path d="M41.7257 37.4412C41.5166 37.4412 41.3157 37.3633 41.164 37.2157L38.7573 34.9443C38.4293 34.6327 38.4129 34.1161 38.7245 33.784C39.0361 33.4519 39.5527 33.4396 39.8848 33.7512L41.6929 35.4609L44.6203 32.3572C44.9319 32.0292 45.4485 32.0128 45.7806 32.3244C46.1086 32.636 46.125 33.1526 45.8134 33.4847L42.3202 37.1829C42.1726 37.3428 41.9635 37.433 41.7462 37.4412C41.738 37.4412 41.7298 37.4412 41.7216 37.4412H41.7257Z" fill="#2E6FF2"/>
</svg>
