<svg width="20" height="20" viewBox="0 0 20 20" fill="none" xmlns="http://www.w3.org/2000/svg">
<g clip-path="url(#clip0_4016_11186)">
<path fill-rule="evenodd" clip-rule="evenodd" d="M9.5714 0C4.27866 0 0 4.4 0 9.8434C0 14.1946 2.74149 17.8778 6.54465 19.1814C7.02015 19.2794 7.19432 18.9696 7.19432 18.709C7.19432 18.4808 7.17865 17.6986 7.17865 16.8836C4.51611 17.4704 3.96167 15.7102 3.96167 15.7102C3.53378 14.5694 2.89979 14.2762 2.89979 14.2762C2.02834 13.6732 2.96327 13.6732 2.96327 13.6732C3.92993 13.7384 4.43716 14.6836 4.43716 14.6836C5.29274 16.1828 6.67141 15.7592 7.22606 15.4984C7.30521 14.8628 7.55892 14.4228 7.82831 14.1784C5.70475 13.9502 3.4705 13.1028 3.4705 9.3218C3.4705 8.2462 3.85058 7.3662 4.45283 6.6818C4.35781 6.4374 4.02495 5.4268 4.54805 4.0742C4.54805 4.0742 5.35621 3.8134 7.17845 5.0846C7.95861 4.86913 8.76318 4.75952 9.5714 4.7586C10.3796 4.7586 11.2034 4.8728 11.9641 5.0846C13.7866 3.8134 14.5947 4.0742 14.5947 4.0742C15.1178 5.4268 14.7848 6.4374 14.6898 6.6818C15.3079 7.3662 15.6723 8.2462 15.6723 9.3218C15.6723 13.1028 13.438 13.9338 11.2986 14.1784C11.6473 14.488 11.9483 15.0746 11.9483 16.0036C11.9483 17.3236 11.9326 18.383 11.9326 18.7088C11.9326 18.9696 12.107 19.2794 12.5823 19.1816C16.3854 17.8776 19.1269 14.1946 19.1269 9.8434C19.1426 4.4 14.8483 0 9.5714 0Z" fill="#47494D"/>
</g>
<defs>
<clipPath id="clip0_4016_11186">
<rect width="19.2" height="19.2" fill="white"/>
</clipPath>
</defs>
</svg>
