<svg width="25" height="25" viewBox="0 0 25 25" fill="none" xmlns="http://www.w3.org/2000/svg">
<path fill-rule="evenodd" clip-rule="evenodd" d="M5.25 3.5C3.5103 3.5 2.1 4.9103 2.1 6.65V19.25C2.1 20.9897 3.5103 22.4 5.25 22.4H17.85C19.5897 22.4 21 20.9897 21 19.25V12.25C21 11.6701 21.4701 11.2 22.05 11.2C22.6299 11.2 23.1 11.6701 23.1 12.25V19.25C23.1 22.1495 20.7495 24.5 17.85 24.5H5.25C2.3505 24.5 0 22.1495 0 19.25V6.65C0 3.7505 2.35051 1.4 5.25 1.4H12.25C12.8299 1.4 13.3 1.8701 13.3 2.45C13.3 3.0299 12.8299 3.5 12.25 3.5H5.25Z" fill="#2E6FF2"/>
<path fill-rule="evenodd" clip-rule="evenodd" d="M18.1493 1.08968C19.6022 -0.363228 21.9578 -0.363228 23.4107 1.08968C24.8636 2.54259 24.8636 4.89823 23.4107 6.35114L13.9694 15.7925C13.7725 15.9894 13.5054 16.1 13.2269 16.1H9.45039C8.87049 16.1 8.40039 15.6299 8.40039 15.05V11.2735C8.40039 10.995 8.51102 10.7279 8.70793 10.531L18.1493 1.08968ZM21.9258 2.57461C21.293 1.9418 20.267 1.9418 19.6342 2.57461L18.7244 3.48438L21.016 5.77598L21.9258 4.86621C22.5586 4.2334 22.5586 3.20742 21.9258 2.57461ZM19.5311 7.26091L17.2395 4.9693L10.5004 11.7084V14H12.792L19.5311 7.26091Z" fill="#2E6FF2"/>
</svg>
