<svg width="17" height="20" viewBox="0 0 17 20" fill="none" xmlns="http://www.w3.org/2000/svg">
<path d="M5.40039 11.5498C5.40035 10.473 4.52701 9.59974 3.4502 9.59962C2.37328 9.59962 1.50004 10.4729 1.5 11.5498C1.5 12.6268 2.37326 13.5 3.4502 13.5C4.52703 13.4999 5.40039 12.6267 5.40039 11.5498ZM4.47656 14.8438C4.15228 14.9447 3.8077 15 3.4502 15C3.09319 15 2.7487 14.9454 2.4248 14.8447L1.6543 17.7598L2.74023 17.2607C2.96137 17.1553 3.2031 17.0999 3.44824 17.0996C3.69388 17.0993 3.93645 17.1544 4.1582 17.2598L5.24707 17.7607L4.47656 14.8438ZM0.900391 5.51954V2.54981C0.900439 1.87371 1.16848 1.22522 1.64648 0.747076C2.1247 0.268862 2.7739 5.7166e-06 3.4502 5.7166e-06H10.6494C11.033 -0.00075331 11.4131 0.0740793 11.7676 0.220709C12.1223 0.367516 12.4448 0.583597 12.7158 0.855474L15.9434 4.08301C16.2155 4.35421 16.4322 4.67721 16.5791 5.03223C16.7257 5.38671 16.8006 5.76679 16.7998 6.1504V16.9502C16.7997 17.6264 16.5309 18.2748 16.0527 18.7529C15.5746 19.2311 14.9262 19.5 14.25 19.5H9.75C9.33584 19.5 9.00009 19.1641 9 18.75C9 18.3358 9.33579 18 9.75 18H14.25C14.5284 18 14.7953 17.8892 14.9922 17.6924C15.189 17.4956 15.2997 17.2285 15.2998 16.9502V6.9004H11.5498C11.1122 6.90037 10.6922 6.72641 10.3828 6.417C10.0734 6.10758 9.9004 5.68758 9.90039 5.25001L9.89941 1.50001H3.4502C3.17172 1.50001 2.90394 1.61071 2.70703 1.80762C2.51033 2.00446 2.40044 2.27153 2.40039 2.54981V5.51954C2.40039 5.93361 2.06441 6.26931 1.65039 6.26954C1.23618 6.26954 0.900391 5.93375 0.900391 5.51954ZM6.90039 11.5498C6.90039 12.5372 6.48419 13.4268 5.81934 14.0557L6.85742 17.9815H6.85547C6.91537 18.1987 6.91434 18.4284 6.84961 18.6445C6.78288 18.8672 6.65296 19.0656 6.47559 19.2158C6.29824 19.366 6.08111 19.4611 5.85059 19.4902C5.6246 19.5187 5.39535 19.4817 5.18945 19.3848L5.17578 19.3799L3.53125 18.6221C3.52638 18.6198 3.52142 18.6176 3.5166 18.6152C3.49607 18.6052 3.47305 18.5996 3.4502 18.5996C3.42744 18.5996 3.4052 18.6053 3.38477 18.6152C3.37923 18.618 3.37279 18.6205 3.36719 18.6231L1.70996 19.3848L1.71094 19.3857C1.50191 19.4836 1.26876 19.5194 1.04004 19.4883C0.811265 19.4572 0.596211 19.3602 0.420898 19.21C0.245794 19.0599 0.117593 18.8627 0.0517578 18.6416C-0.012228 18.4264 -0.0135254 18.1977 0.0458984 17.9815L1.08203 14.0576C0.41617 13.4287 0 12.5381 0 11.5498C4.48398e-05 9.64448 1.54486 8.09962 3.4502 8.09962C5.35543 8.09974 6.90035 9.64456 6.90039 11.5498ZM11.4004 5.25001C11.4004 5.28976 11.4153 5.32833 11.4434 5.35645C11.4715 5.38456 11.5101 5.40037 11.5498 5.4004H15.0859C15.0288 5.3085 14.9618 5.22227 14.8848 5.14551L11.6543 1.91504C11.5775 1.838 11.4913 1.77106 11.3994 1.71387L11.4004 5.25001Z" fill="currentColor"/>
</svg>
