<svg width="51" height="48" viewBox="0 0 51 48" fill="none" xmlns="http://www.w3.org/2000/svg">
<path d="M49.6017 4.26433C47.8018 0.521033 43.3041 -1.05747 39.5608 0.746534C35.8175 2.55053 34.239 7.04413 36.043 10.7874C36.2931 11.304 36.5965 11.7755 36.9409 12.206L36.2685 13.9198C36.0922 14.3626 36.5801 14.7767 36.9901 14.5348L38.462 13.6574C40.6227 15.1908 43.5255 15.5352 46.0839 14.3093C49.8272 12.5094 51.4057 8.01173 49.6017 4.26843V4.26433Z" fill="#B5CEFF"/>
<path d="M11.3857 26.0149C11.8244 26.0149 12.177 25.6623 12.177 25.2236C12.177 24.7849 11.8244 24.4323 11.3857 24.4323C10.947 24.4323 10.5944 24.7849 10.5944 25.2236C10.5944 25.6623 10.947 26.0149 11.3857 26.0149Z" fill="#2E6FF2"/>
<path d="M14.1573 26.0149C14.5943 26.0149 14.9486 25.6606 14.9486 25.2236C14.9486 24.7865 14.5943 24.4323 14.1573 24.4323C13.7202 24.4323 13.366 24.7865 13.366 25.2236C13.366 25.6606 13.7202 26.0149 14.1573 26.0149Z" fill="#2E6FF2"/>
<path d="M14.7928 26.9743C14.4853 26.839 14.1245 26.9661 13.9851 27.2777C13.9728 27.2982 13.7227 27.741 12.7756 27.741C11.8285 27.741 11.5702 27.3146 11.5456 27.2736C11.398 26.9784 11.0372 26.8513 10.7379 26.9907C10.4304 27.1342 10.2951 27.4991 10.4386 27.8066C10.6395 28.2412 11.357 28.971 12.7756 28.971C14.1942 28.971 14.9076 28.233 15.1003 27.7984C15.2397 27.4868 15.1003 27.1137 14.7928 26.9784V26.9743Z" fill="#2E6FF2"/>
<path d="M42.6482 31.8697C42.6933 31.8246 42.7343 31.7795 42.7753 31.7344C44.1775 30.2051 44.936 28.2453 44.936 26.1789C44.936 26.0559 44.9319 25.9288 44.9278 25.8017C44.7228 21.263 40.8729 17.7329 36.3219 17.9338C35.3912 17.9748 34.4892 18.1716 33.6487 18.5037C32.7713 17.6468 31.775 16.9129 30.6803 16.3348C32.0989 14.8547 32.9722 12.8498 32.9722 10.644C32.9722 6.10115 29.274 2.40295 24.7271 2.40295C20.1802 2.40295 16.482 6.10115 16.482 10.644C16.482 12.8498 17.3553 14.8547 18.7739 16.3348C17.6792 16.9129 16.6829 17.6468 15.8055 18.5037C14.8666 18.1306 13.8457 17.9256 12.7756 17.9256C8.2328 17.9256 4.5346 21.6238 4.5346 26.1707C4.5346 28.3806 5.4079 30.3855 6.8265 31.8656C2.7716 34.0058 0 38.2698 0 43.1652V46.7363C0 47.1873 0.369 47.5563 0.82 47.5563C1.271 47.5563 1.64 47.1873 1.64 46.7363V43.1652C1.64 38.6552 4.3337 34.7643 8.1959 33.0177C9.5079 33.8992 11.0823 34.4158 12.7756 34.4158C14.4689 34.4158 16.0474 33.8992 17.3594 33.0177C21.2216 34.7684 23.9153 38.6552 23.9153 43.1652V46.7363C23.9153 46.765 23.9153 46.7937 23.9194 46.8183C23.944 47.2488 24.2966 47.585 24.7353 47.585C25.174 47.585 25.5266 47.2488 25.5512 46.8183C25.5553 46.7937 25.5553 46.765 25.5553 46.7363V43.1652C25.5553 38.6593 28.2449 34.7684 32.103 33.0218C33.4519 33.932 35.0345 34.4158 36.6827 34.4158C36.8098 34.4158 36.9328 34.4117 37.0599 34.4076C38.5933 34.3379 40.0406 33.8582 41.2829 33.0218C45.141 34.7725 47.8265 38.6593 47.8265 43.1652V46.765C47.8265 47.2201 48.1955 47.585 48.6465 47.585C49.0975 47.585 49.4665 47.2201 49.4665 46.765V43.1652C49.4665 38.2698 46.699 34.0099 42.6482 31.8697ZM18.122 10.644C18.122 7.00315 21.0863 4.04295 24.7271 4.04295C28.3679 4.04295 31.3322 7.00315 31.3322 10.644C31.3322 12.6284 30.4548 14.4119 29.0649 15.6214C28.5114 16.1052 27.8718 16.4988 27.1748 16.7776C26.4163 17.081 25.5922 17.2491 24.7271 17.2491C23.862 17.2491 23.0379 17.081 22.2794 16.7776C21.5824 16.4988 20.9428 16.1052 20.3893 15.6214C18.9994 14.4119 18.122 12.6284 18.122 10.644ZM13.5874 32.7225C13.3209 32.7594 13.0503 32.7758 12.7756 32.7758C12.5009 32.7758 12.218 32.7594 11.9474 32.7225C11.3857 32.6528 10.8404 32.5093 10.332 32.3043C9.6391 32.0255 9.0036 31.6319 8.446 31.1481C7.0561 29.9386 6.1746 28.1551 6.1746 26.1707C6.1746 22.5299 9.1348 19.5656 12.7756 19.5656C13.4152 19.5656 14.0343 19.6558 14.6206 19.8321C15.17 19.9879 15.6907 20.2175 16.1745 20.5127C18.0933 21.6648 19.3807 23.7722 19.3807 26.1707C19.3807 28.1551 18.5033 29.9345 17.1134 31.1481C16.5558 31.6319 15.9162 32.0255 15.2192 32.3043C14.7067 32.5093 14.1573 32.6528 13.5874 32.7225ZM24.7353 38.6593C23.6242 35.7278 21.4717 33.3129 18.7288 31.8656C20.1515 30.3855 21.0207 28.3806 21.0207 26.1707C21.0207 23.313 19.5611 20.7915 17.343 19.3114C18.1753 18.5734 19.1224 17.9543 20.1474 17.4951C21.4553 18.3766 23.0338 18.8891 24.7271 18.8891C26.4204 18.8891 27.9989 18.3766 29.3068 17.4951C30.3318 17.9543 31.2789 18.5734 32.1112 19.3114C31.5659 19.6763 31.0616 20.1109 30.6065 20.607C29.1223 22.2347 28.3556 24.338 28.454 26.5397C28.5442 28.5569 29.3519 30.4306 30.7336 31.8697C27.9948 33.317 25.8423 35.7319 24.7353 38.6593ZM37.5027 32.7225C37.3305 32.7471 37.1583 32.7594 36.9861 32.7676C36.6048 32.784 36.2317 32.7717 35.8627 32.7225C35.301 32.6528 34.7557 32.5134 34.235 32.3043C33.5544 32.0337 32.9189 31.6442 32.3531 31.1522C32.3121 31.1153 32.2752 31.0825 32.2342 31.0456C30.9345 29.8525 30.1719 28.2289 30.094 26.4659C30.0161 24.7029 30.627 23.0178 31.816 21.714C32.2547 21.2425 32.7426 20.8407 33.2797 20.5168C33.7635 20.2175 34.2883 19.992 34.8336 19.8321C35.3379 19.6845 35.8586 19.5984 36.3957 19.5738C36.4982 19.5697 36.5966 19.5656 36.695 19.5656C38.4498 19.5656 40.057 20.2585 41.246 21.3942C42.4391 22.5299 43.2099 24.1084 43.2878 25.8755C43.3698 27.6385 42.7548 29.3236 41.5658 30.6274C41.3977 30.816 41.2214 30.9882 41.0328 31.1522C40.4711 31.6442 39.8315 32.0337 39.1468 32.3043C38.622 32.5134 38.0726 32.6528 37.5027 32.7225Z" fill="#2E6FF2"/>
<path d="M35.3009 26.0149C35.7396 26.0149 36.0922 25.6623 36.0922 25.2236C36.0922 24.7849 35.7396 24.4323 35.3009 24.4323C34.8622 24.4323 34.5096 24.7849 34.5096 25.2236C34.5096 25.6623 34.8622 26.0149 35.3009 26.0149Z" fill="#2E6FF2"/>
<path d="M38.0685 26.0149C38.5072 26.0149 38.8598 25.6623 38.8598 25.2236C38.8598 24.7849 38.5072 24.4323 38.0685 24.4323C37.6298 24.4323 37.2772 24.7849 37.2772 25.2236C37.2772 25.6623 37.6298 26.0149 38.0685 26.0149Z" fill="#2E6FF2"/>
<path d="M38.7081 26.9743C38.4006 26.839 38.0398 26.9661 37.9004 27.2777C37.8881 27.2982 37.638 27.741 36.6909 27.741C35.7438 27.741 35.4855 27.3146 35.4609 27.2736C35.3133 26.9784 34.9566 26.8513 34.6532 26.9907C34.3457 27.1342 34.2104 27.4991 34.3539 27.8066C34.5548 28.2412 35.2723 28.971 36.6909 28.971C38.1095 28.971 38.8229 28.233 39.0156 27.7984C39.155 27.4868 39.0156 27.1137 38.7081 26.9784V26.9743Z" fill="#2E6FF2"/>
<path d="M23.333 10.4882C23.7717 10.4882 24.1243 10.1356 24.1243 9.69688C24.1243 9.25818 23.7717 8.90558 23.333 8.90558C22.8943 8.90558 22.5417 9.25818 22.5417 9.69688C22.5417 10.1356 22.8943 10.4882 23.333 10.4882Z" fill="#2E6FF2"/>
<path d="M26.1047 10.4882C26.5434 10.4882 26.896 10.1356 26.896 9.69688C26.896 9.25818 26.5434 8.90558 26.1047 8.90558C25.666 8.90558 25.3134 9.25818 25.3134 9.69688C25.3134 10.1356 25.666 10.4882 26.1047 10.4882Z" fill="#2E6FF2"/>
<path d="M24.7271 13.4442C26.1498 13.4442 26.8591 12.7062 27.0518 12.2716C27.1912 11.96 27.0518 11.5869 26.7443 11.4516C26.4327 11.3163 26.076 11.4434 25.9366 11.755C25.9243 11.7755 25.6742 12.2183 24.7271 12.2183C23.78 12.2183 23.5217 11.7919 23.4971 11.7509C23.3495 11.4557 22.9887 11.3286 22.6894 11.468C22.3819 11.6115 22.2466 11.9764 22.3901 12.2839C22.591 12.7144 23.3085 13.4483 24.7271 13.4483V13.4442Z" fill="#2E6FF2"/>
</svg>
