<svg width="54" height="48" viewBox="0 0 54 48" fill="none" xmlns="http://www.w3.org/2000/svg">
<path d="M25.7576 11.0997C25.7576 10.4582 25.2375 9.93811 24.5959 9.93811C23.9544 9.93811 23.4343 10.4582 23.4343 11.0997C23.4343 11.7413 23.9544 12.2614 24.5959 12.2614C25.2375 12.2614 25.7576 11.7413 25.7576 11.0997Z" fill="#2E6FF2"/>
<path d="M28.6663 12.2614C29.3078 12.2614 29.8279 11.7413 29.8279 11.0997C29.8279 10.4582 29.3078 9.93811 28.6663 9.93811C28.0247 9.93811 27.5046 10.4582 27.5046 11.0997C27.5046 11.7413 28.0247 12.2614 28.6663 12.2614Z" fill="#2E6FF2"/>
<path d="M49.6756 23.8374V16.8879C49.6756 16.0679 49.2902 15.2848 48.626 14.7395C47.8593 14.1163 46.8056 13.8662 45.8011 14.0712L44.6818 14.3008V12.1237C44.6818 11.8859 44.5793 11.6563 44.3989 11.5005C44.2226 11.3447 43.9807 11.275 43.747 11.3119C42.5006 11.4923 41.2665 11.7465 40.0734 12.054C39.3436 5.28491 33.5995 0 26.6459 0C19.6882 0 13.9441 5.28491 13.2143 12.054C12.0212 11.7465 10.7871 11.4923 9.54071 11.3119C9.30698 11.275 9.0692 11.3447 8.88877 11.5005C8.7084 11.6563 8.6059 11.8859 8.6059 12.1237V14.3008L7.4866 14.0712C6.48212 13.8662 5.4284 14.1163 4.6658 14.7395C3.9975 15.2848 3.61623 16.0679 3.61623 16.8879V23.8374C1.5334 24.4565 0 26.5229 0 28.9665C0 31.4142 1.5334 33.4806 3.61623 34.0997V39.5322C3.61623 40.8934 4.63302 42.0496 6.08849 42.3489L23.2798 45.8667C23.6857 46.5842 24.4565 47.068 25.3421 47.068H27.9456C28.8312 47.068 29.602 46.5842 30.0079 45.8667L47.1992 42.3489C48.6588 42.0496 49.6756 40.8934 49.6756 39.5322V34.0997C51.7584 33.4765 53.2918 31.4101 53.2918 28.9665C53.2918 26.527 51.7584 24.4606 49.6756 23.8374ZM40.1472 13.7309C41.0943 13.4767 42.0619 13.2553 43.0418 13.0831V14.637L31.3609 17.0273C31.3855 17.015 31.4101 17.0027 31.4347 16.9904C33.0952 16.1991 35.6167 15.1003 38.4867 14.2106C38.7614 14.1245 39.0402 14.0384 39.3231 13.9564C39.5937 13.8785 39.8684 13.8047 40.1472 13.7309ZM26.6459 1.64C32.8492 1.64 37.9537 6.42472 38.4662 12.4968C33.907 13.8498 30.1719 15.7481 28.9706 16.3918H28.9665C28.659 16.2401 28.3105 16.1581 27.9456 16.1581H25.3421C24.9772 16.1581 24.6287 16.2401 24.3212 16.3918H24.3171C23.1158 15.7481 19.3766 13.8498 14.8215 12.4968C15.334 6.42472 20.4426 1.64 26.6459 1.64ZM10.2459 13.0831C11.2258 13.2553 12.1934 13.4767 13.1405 13.7309C13.4193 13.8047 13.694 13.8785 13.9646 13.9564L21.8571 16.9904H21.8612C21.8612 16.9904 21.8653 16.9904 21.8653 16.9945C21.8899 17.0027 21.9063 17.0191 21.935 17.0273L21.5619 16.9535L21.5496 16.9494L10.2459 14.637V13.0831ZM3.61623 32.3449C2.45179 31.775 1.64 30.4753 1.64 28.9665C1.64 27.4618 2.45179 26.1621 3.61623 25.5922C4.01802 25.3913 4.46486 25.2806 4.93642 25.2806C5.04302 25.2806 5.14962 25.2847 5.25623 25.297C6.87571 25.4774 8.05646 26.9944 8.05646 28.9665C8.05646 30.9427 6.87571 32.4597 5.25623 32.6401C5.14962 32.6524 5.04302 32.6565 4.93642 32.6565C4.46486 32.6565 4.01802 32.5458 3.61623 32.3449ZM5.25623 39.5322V34.2842C7.76948 34.1079 9.69646 31.8365 9.69646 28.9665C9.69646 26.1006 7.76948 23.8292 5.25623 23.6529V16.8879C5.25623 16.441 5.535 16.1458 5.70306 16.0105C6.08849 15.6948 6.63377 15.5718 7.15858 15.6784L9.13892 16.0843C9.21679 16.113 9.30288 16.1335 9.39306 16.1376H9.40127L22.9641 18.9133V44.1283L6.41646 40.7417C5.73179 40.6023 5.25623 40.1021 5.25623 39.5322ZM27.9456 45.428H25.3421C24.9362 45.428 24.6041 45.1 24.6041 44.69V18.5361C24.6041 18.1302 24.9362 17.7981 25.3421 17.7981H27.9456C28.3515 17.7981 28.6836 18.1302 28.6836 18.5361V44.69C28.6836 45.1 28.3515 45.428 27.9456 45.428ZM48.0356 39.5322C48.0356 40.1021 47.5559 40.6023 46.8712 40.7417L30.3236 44.1283V18.9133L43.8864 16.1376H43.8946C43.9848 16.1335 44.075 16.113 44.1529 16.0843L44.157 16.0802L46.1291 15.6784C46.6539 15.5718 47.1992 15.6948 47.5887 16.0105C47.7527 16.1458 48.0356 16.441 48.0356 16.8879V23.6529C45.5182 23.8292 43.5912 26.1006 43.5912 28.9665C43.5912 31.8365 45.5182 34.1079 48.0356 34.2842V39.5322ZM49.6756 32.3449C49.2697 32.5458 48.8228 32.6565 48.3513 32.6565C48.2447 32.6565 48.1381 32.6524 48.0356 32.6401C46.4202 32.4638 45.2312 30.9427 45.2312 28.9665C45.2312 26.9944 46.4202 25.4733 48.0356 25.297C48.1381 25.2847 48.2447 25.2806 48.3513 25.2806C48.8228 25.2806 49.2697 25.3913 49.6756 25.5922C50.84 26.1621 51.6518 27.4618 51.6518 28.9665C51.6518 30.4753 50.84 31.775 49.6756 32.3449Z" fill="#2E6FF2"/>
<path d="M43.0351 24.6612L36.7288 25.8525C35.9313 26.0032 35.1934 25.3916 35.1934 24.58V22.5638C35.1934 21.9412 35.6363 21.4068 36.248 21.2912L42.5544 20.0999C43.3519 19.9493 44.0898 20.5609 44.0898 21.3725V23.3887C44.0898 24.0112 43.6469 24.5457 43.0351 24.6612Z" fill="#B5CEFF"/>
</svg>
