<svg width="20" height="20" viewBox="0 0 20 20" fill="none" xmlns="http://www.w3.org/2000/svg">
<path d="M19.2 10.0291C19.2 9.38341 19.1428 8.77039 19.0447 8.17371H9.80847V11.86H15.0969C14.8598 13.0698 14.1651 14.0915 13.1352 14.7862V17.2383H16.2902C18.1375 15.53 19.2 13.0125 19.2 10.0291Z" fill="#4285F4"/>
<path d="M9.80847 19.6168C12.4567 19.6168 14.6718 18.7341 16.2902 17.2383L13.1352 14.7862C12.2524 15.3747 11.1326 15.7343 9.80847 15.7343C7.2501 15.7343 5.08408 14.0097 4.30757 11.6802H1.05444V14.2058C2.66466 17.4099 5.97501 19.6168 9.80847 19.6168Z" fill="#34A853"/>
<path d="M4.30754 11.6802C4.10319 11.0917 3.99694 10.4624 3.99694 9.80846C3.99694 9.15456 4.11137 8.52519 4.30754 7.93668V5.41101H1.05441C0.384163 6.73515 0 8.22276 0 9.80846C0 11.3942 0.384163 12.8818 1.05441 14.2059L4.30754 11.6802Z" fill="#FBBC05"/>
<path d="M9.80847 3.8825C11.2552 3.8825 12.5467 4.3811 13.5684 5.35377L16.3638 2.55837C14.6718 0.97267 12.4567 0 9.80847 0C5.97501 0 2.66466 2.2069 1.05444 5.41099L4.30757 7.93666C5.08408 5.60716 7.2501 3.8825 9.80847 3.8825Z" fill="#EA4335"/>
</svg>
