<svg width="18" height="18" viewBox="0 0 18 18" fill="none" xmlns="http://www.w3.org/2000/svg">
<path d="M8.1875 14.6875V9.8125H3.3125C2.86377 9.8125 2.5 9.44873 2.5 9C2.5 8.55127 2.86377 8.1875 3.3125 8.1875H8.1875V3.3125C8.1875 2.86377 8.55127 2.5 9 2.5C9.44873 2.5 9.8125 2.86377 9.8125 3.3125V8.1875H14.6875C15.1362 8.1875 15.5 8.55127 15.5 9C15.5 9.44873 15.1362 9.8125 14.6875 9.8125H9.8125V14.6875C9.8125 15.1362 9.44873 15.5 9 15.5C8.55127 15.5 8.1875 15.1362 8.1875 14.6875Z" fill="currentColor"/>
</svg>
