<svg width="18" height="18" viewBox="0 0 18 18" fill="none" xmlns="http://www.w3.org/2000/svg">
<path d="M7.99245 4.5923C8.40245 4.1822 8.40245 3.51739 7.99245 3.10734C7.58235 2.69729 6.91755 2.69729 6.50745 3.10734L3.70749 5.9073C3.51057 6.1043 3.39995 6.3713 3.39995 6.6498C3.39995 6.92835 3.51057 7.19535 3.70749 7.39235L6.50745 10.1924C6.91755 10.6024 7.58235 10.6024 7.99245 10.1924C8.40245 9.78225 8.40245 9.11745 7.99245 8.70735L6.98485 7.69985H10.75C12.1031 7.69985 13.2 8.79675 13.2 10.1499C13.2 11.503 12.1031 12.5999 10.75 12.5999H3.74995C3.17005 12.5999 2.69995 13.07 2.69995 13.6499C2.69995 14.2298 3.17005 14.6999 3.74995 14.6999H10.75C13.2629 14.6999 15.3 12.6628 15.3 10.1499C15.3 7.63695 13.2629 5.5998 10.75 5.5998H6.98485L7.99245 4.5923Z" fill="#8D9299"/>
</svg>
