<svg width="25" height="24" viewBox="0 0 25 24" fill="none" xmlns="http://www.w3.org/2000/svg">
<path fill-rule="evenodd" clip-rule="evenodd" d="M13.6092 2.51147C12.788 1.96284 11.712 1.96284 10.8908 2.51147C10.8675 2.52699 10.8423 2.54399 10.8155 2.56211C10.6655 2.66339 10.4631 2.79997 10.2523 2.91378L3.13105 6.75764C2.97616 6.84124 2.88806 6.90447 2.83339 6.95815C2.36657 7.41645 2.1 8.04565 2.1 8.70625V18.9404C2.1 20.2935 3.1969 21.3904 4.55 21.3904H19.95C21.3031 21.3904 22.4 20.2935 22.4 18.9404V8.70625C22.4 8.04565 22.1334 7.41645 21.6666 6.95815C21.6119 6.90448 21.5238 6.84124 21.369 6.75764L14.2477 2.91378C14.0369 2.79998 13.8345 2.6634 13.6845 2.56211C13.6577 2.54399 13.6325 2.527 13.6092 2.51147ZM9.7242 0.765262C11.2516 -0.255087 13.2484 -0.255087 14.7758 0.765262C14.8135 0.790482 14.8484 0.813943 14.8811 0.835903C15.0307 0.936453 15.1332 1.00537 15.2452 1.06581L22.3664 4.90966C22.5965 5.03386 22.8803 5.20683 23.1378 5.45965C24.0049 6.31095 24.5 7.47935 24.5 8.70625V18.9404C24.5 21.4533 22.4629 23.4904 19.95 23.4904H4.55C2.0371 23.4904 0 21.4533 0 18.9404V8.70625C0 7.47935 0.49509 6.31094 1.36217 5.45965C1.61968 5.20683 1.90346 5.03386 2.13356 4.90966L9.2548 1.06581C9.3668 1.00537 9.4693 0.936453 9.6189 0.835903C9.6516 0.813943 9.6865 0.790482 9.7242 0.765262ZM11.5925 6.29789C12.0025 6.70794 12.0025 7.37275 11.5925 7.78285L10.5849 8.79035H14.35C16.8629 8.79035 18.9 10.8275 18.9 13.3404C18.9 15.8533 16.8629 17.8904 14.35 17.8904H7.35C6.7701 17.8904 6.3 17.4203 6.3 16.8404C6.3 16.2605 6.7701 15.7904 7.35 15.7904H14.35C15.7031 15.7904 16.8 14.6935 16.8 13.3404C16.8 11.9873 15.7031 10.8904 14.35 10.8904H10.5849L11.5925 11.8979C12.0025 12.308 12.0025 12.9728 11.5925 13.3829C11.1824 13.7929 10.5176 13.7929 10.1075 13.3829L7.30754 10.5829C7.11062 10.3859 7 10.1189 7 9.84035C7 9.56185 7.11062 9.29485 7.30754 9.09785L10.1075 6.29789C10.5176 5.88784 11.1824 5.88784 11.5925 6.29789Z" fill="#8D9299"/>
</svg>
