<svg width="24" height="24" viewBox="0 0 24 24" fill="none" xmlns="http://www.w3.org/2000/svg">
<rect width="24" height="24" rx="4" fill="#2E6FF2"/>
<path fill-rule="evenodd" clip-rule="evenodd" d="M12.8464 4.55699C13.2074 4.48709 13.4792 4.88057 13.2859 5.19327L10.7606 9.53379C10.5913 9.80785 10.7787 10.1528 11.0883 10.1701C11.1208 10.1719 11.1523 10.1657 11.1835 10.1566C13.346 9.52494 17.5571 8.90965 18.5666 10.9285C19.7852 13.3658 17.4107 16.2862 14.161 17.911C11.7868 19.098 7.65322 19.0132 6.58673 18.5909C5.81155 18.2838 5.56809 17.4277 5.97425 16.2092L7.7262 12.2437C7.8551 11.8179 7.46448 11.7554 6.84696 11.6925L6.31699 11.6116C6.03176 11.5682 5.87368 11.258 6.00599 11.0015L8.11635 5.52331C8.1756 5.40849 8.28463 5.32731 8.41148 5.30275L12.8464 4.55699ZM14.668 12.7406C14.3427 12.401 13.2664 12.1931 12.2958 12.7406C10.9401 13.5057 9.67711 15.0945 10.1839 15.6237C10.5291 15.9839 12.1546 15.8302 13.6334 14.9033C15.3581 13.8223 14.9214 13.0053 14.668 12.7406Z" fill="white"/>
</svg>
