<svg xmlns="http://www.w3.org/2000/svg" width="24" height="24" viewBox="0 0 24 24" fill="none">
  <path d="M0 4C0 1.79086 1.79086 0 4 0H20C22.2091 0 24 1.79086 24 4V20C24 22.2091 22.2091 24 20 24H4C1.79086 24 0 22.2091 0 20V4Z" fill="#FF5B3B"/>
  <path fill-rule="evenodd" clip-rule="evenodd" d="M12.3855 4.76023C12.7988 4.64996 13.0815 4.97818 12.8274 5.39651C12.8274 5.39651 10.8687 8.85742 10.5074 9.46679C10.1462 10.0762 10.1459 10.3849 10.2491 10.4707C10.4075 10.6024 10.9053 10.4473 11.0846 10.3926C13.2762 9.72413 18.0843 9.02148 18.6175 12.1388C18.9117 13.8145 18.0369 15.4718 15.5188 17.3027C12.5424 19.4668 7.21754 19.4321 6.20625 18.8965C5.19496 18.3609 5.10031 17.3305 5.70014 16.0493C6.29996 14.768 7.06493 13.2285 7.21405 12.873C7.36317 12.5176 7.3128 12.3228 7.27694 12.2514C7.13225 11.9633 6.52834 12.043 5.92485 11.9277C5.63814 11.8843 5.46 11.6145 5.67989 11.1184C5.89978 10.6223 7.41583 6.22304 7.51006 6.00038C7.6043 5.77773 7.7336 5.67776 7.86111 5.6532L12.3855 4.76023ZM14.3155 13.0098C13.9936 12.6465 13.2161 12.3652 11.8731 13.034C10.53 13.7028 9.2372 15.5712 9.61928 16.0059C10.0014 16.4406 11.5826 16.1855 13.1454 15.2559C14.7082 14.3262 14.6375 13.373 14.3155 13.0098Z" fill="white"/>
</svg>