<svg width="24" height="24" viewBox="0 0 24 24" fill="none" xmlns="http://www.w3.org/2000/svg">
<rect width="24" height="24" rx="4" fill="#2E6FF2"/>
<path fill-rule="evenodd" clip-rule="evenodd" d="M12.5107 4.84458C12.8717 4.77469 13.1435 5.16817 12.9502 5.48087L10.425 9.82139C10.2556 10.0955 10.443 10.4404 10.7526 10.4577C10.7851 10.4595 10.8166 10.4533 10.8478 10.4442C13.0103 9.81254 17.2214 9.19725 18.2309 11.2161C19.4495 13.6534 17.075 16.5738 13.8253 18.1986C11.4512 19.3856 7.31752 19.3008 6.25104 18.8785C5.47585 18.5714 5.2324 17.7153 5.63856 16.4968L7.3905 12.5313C7.51941 12.1055 7.12878 12.043 6.51126 11.9801L5.98129 11.8992C5.69607 11.8558 5.53798 11.5456 5.67029 11.2891L7.78066 5.81091C7.8399 5.69609 7.94894 5.61491 8.07579 5.59035L12.5107 4.84458ZM14.3323 13.0282C14.007 12.6886 12.9307 12.4807 11.9601 13.0282C10.6045 13.7933 9.34141 15.3821 9.84818 15.9113C10.1934 16.2715 11.8189 16.1178 13.2977 15.1909C15.0224 14.1099 14.5857 13.2929 14.3323 13.0282Z" fill="white"/>
</svg>
