<svg width="130" height="25" viewBox="0 0 130 25" fill="none" xmlns="http://www.w3.org/2000/svg">
<path fill-rule="evenodd" clip-rule="evenodd" d="M3.30664 9.28809C3.67687 8.667 4.13917 8.11944 4.69434 7.64648L4.69629 7.64551C5.33534 7.12059 6.05374 6.70946 6.85156 6.41309C7.67295 6.11647 8.52978 5.96782 9.41895 5.96777C11.0329 5.96777 12.4806 6.33167 13.7578 7.06152C15.0347 7.79121 16.0379 8.82891 16.7666 10.1719L16.9033 10.4229C17.5648 11.6925 17.8935 13.1797 17.8936 14.8809C17.8936 16.3092 17.6661 17.6046 17.2109 18.7656C16.7787 19.9031 16.1642 20.8833 15.3662 21.7041C14.5682 22.5249 13.6225 23.1522 12.5293 23.585H12.5273C11.4343 23.9949 10.2291 24.1992 8.91309 24.1992C7.23238 24.1992 5.71827 23.8365 4.37402 23.1074C3.02918 22.378 1.95792 21.3288 1.16113 19.9629L1.16016 19.9609C0.384943 18.57 0 16.9091 0 14.9824V0H3.30664V9.28809ZM8.94629 8.83594C7.90558 8.83599 6.95559 9.0904 6.09375 9.59863L6.09277 9.59766C5.25472 10.1052 4.5812 10.8348 4.07129 11.7881C3.58533 12.7162 3.33989 13.8246 3.33984 15.1172C3.33984 16.3865 3.58463 17.484 4.07031 18.4121C4.5803 19.3434 5.25554 20.0614 6.09473 20.5693C6.95695 21.0778 7.89524 21.332 8.91309 21.332C9.95387 21.332 10.8926 21.077 11.7314 20.5693C12.5929 20.0613 13.2794 19.3427 13.7891 18.4121C14.2971 17.4843 14.5537 16.3761 14.5537 15.084C14.5537 13.8373 14.2975 12.7507 13.7891 11.8223L13.7881 11.8213C13.3005 10.8905 12.6366 10.1612 11.7969 9.63086C10.9585 9.1014 10.0093 8.83594 8.94629 8.83594Z" fill="#FF5B3B"/>
<path fill-rule="evenodd" clip-rule="evenodd" d="M28.8164 5.96777C30.5874 5.96785 32.1579 6.37721 33.5254 7.19727L33.7822 7.34961C35.0477 8.12969 36.0436 9.1607 36.7695 10.4414C37.567 11.8087 37.9658 13.3573 37.9658 15.084C37.9658 16.6821 37.6157 18.1427 36.915 19.4639L36.7705 19.7256C36.0447 21.0064 35.0483 22.0468 33.7832 22.8467L33.5264 23.0039C32.1587 23.8017 30.5876 24.1991 28.8164 24.1992C27.045 24.1992 25.4733 23.8018 24.1055 23.0039C22.7405 22.1849 21.6578 21.0919 20.8613 19.7266C20.0643 18.3373 19.666 16.7884 19.666 15.084C19.666 13.3794 20.0638 11.8418 20.8613 10.4746C21.608 9.17348 22.6054 8.13125 23.8525 7.34961L24.1055 7.19727C25.4732 6.37684 27.0449 5.96777 28.8164 5.96777ZM28.8164 8.83594C27.663 8.83594 26.6454 9.11161 25.7627 9.66309C25.0083 10.1467 24.3982 10.7836 23.9307 11.5732L23.7383 11.9219C23.2514 12.8514 23.0068 13.9051 23.0068 15.084C23.0069 16.2625 23.2512 17.3269 23.7383 18.2793L23.9297 18.6191C24.397 19.3916 25.008 20.019 25.7627 20.5029L26.0996 20.6973C26.9015 21.12 27.8068 21.332 28.8164 21.332C29.9928 21.332 31.0087 21.0547 31.8682 20.5039C32.731 19.9508 33.4062 19.2096 33.8936 18.2793C34.3807 17.3269 34.625 16.2625 34.625 15.084C34.625 14.0523 34.4376 13.1169 34.0645 12.2764L33.8936 11.9219C33.406 10.9689 32.7306 10.2169 31.8682 9.66406C31.0087 9.11319 29.9929 8.83601 28.8164 8.83594Z" fill="#FF5B3B"/>
<path fill-rule="evenodd" clip-rule="evenodd" d="M48.8984 5.96777C50.6694 5.96782 52.2399 6.37723 53.6074 7.19727L53.8643 7.34961C55.1297 8.12968 56.1256 9.16069 56.8516 10.4414C57.6491 11.8087 58.0479 13.3573 58.0479 15.084C58.0478 16.6822 57.6978 18.1427 56.9971 19.4639L56.8525 19.7256C56.1267 21.0064 55.1304 22.0468 53.8652 22.8467L53.6084 23.0039C52.2407 23.8017 50.6697 24.1992 48.8984 24.1992C47.1271 24.1992 45.5553 23.8018 44.1875 23.0039C42.8226 22.1849 41.7408 21.0918 40.9443 19.7266L40.9434 19.7256C40.1464 18.3364 39.7491 16.7884 39.749 15.084C39.749 13.3794 40.1468 11.8418 40.9443 10.4746C41.6911 9.17344 42.6883 8.13122 43.9355 7.34961L44.1875 7.19727C45.5553 6.37679 47.1269 5.96777 48.8984 5.96777ZM48.8984 8.83594C47.7449 8.83594 46.7275 9.11156 45.8447 9.66309C45.0903 10.1467 44.4802 10.7836 44.0127 11.5732L43.8203 11.9219C43.3334 12.8514 43.0889 13.9051 43.0889 15.084C43.0889 16.2625 43.3332 17.327 43.8203 18.2793L44.0117 18.6191C44.479 19.3916 45.09 20.019 45.8447 20.5029L46.1816 20.6973C46.9836 21.1201 47.8888 21.332 48.8984 21.332C50.0751 21.332 51.0916 21.0549 51.9512 20.5039C52.8139 19.9508 53.4882 19.2095 53.9756 18.2793C54.4627 17.3269 54.707 16.2625 54.707 15.084C54.707 14.0524 54.5205 13.1168 54.1475 12.2764L53.9756 11.9219C53.4881 10.9691 52.8134 10.2169 51.9512 9.66406C51.0916 9.11308 50.0751 8.83599 48.8984 8.83594Z" fill="#FF5B3B"/>
<path d="M64.2559 7.42871H70.165V10.2959H64.2559V18.5957C64.2559 19.3186 64.452 19.8887 64.8359 20.3164C65.2406 20.72 65.7978 20.9268 66.5195 20.9268H70.0977V23.7939H65.9453C64.3947 23.7939 63.1626 23.349 62.2617 22.4482L62.2607 22.4473C61.3831 21.5465 60.9492 20.3258 60.9492 18.7979V3.10645H64.2559V7.42871Z" fill="#FF5B3B"/>
<path d="M97.1824 16.4011C97.1824 17.4495 97.4097 18.3679 97.8689 19.1501L97.8718 19.154C98.3297 19.9093 98.9384 20.4953 99.6941 20.9089L99.7 20.9118C100.479 21.3241 101.305 21.5316 102.177 21.532L102.51 21.5232L102.796 21.4987C103.456 21.4247 104.077 21.2294 104.658 20.9128L104.678 20.9011L104.684 20.8952L104.701 20.8864C105.448 20.481 106.047 19.9155 106.495 19.1902L106.518 19.1521C106.941 18.4673 107.178 17.6785 107.231 16.7888L107.243 16.4011V7.62961H110.182V16.4362L110.178 16.7146V16.7165C110.138 18.1141 109.794 19.3417 109.15 20.4011C108.505 21.4623 107.635 22.3102 106.54 22.9431L106.32 23.0652L106.317 23.0671C105.118 23.6881 103.751 23.9996 102.213 23.9997C100.674 23.9997 99.2932 23.6872 98.071 23.0652L98.0681 23.0642C96.8741 22.4219 95.9346 21.5373 95.2478 20.4118L95.2449 20.4089L95.24 20.4001L95.1218 20.1892L95.1208 20.1882C94.5362 19.106 94.242 17.8556 94.2419 16.4353V7.62961H97.1824V16.4011Z" fill="#303546"/>
<path fill-rule="evenodd" clip-rule="evenodd" d="M91.698 10.0964H86.7419C86.3751 10.0964 85.932 10.097 85.5095 10.1882C85.0803 10.281 84.6621 10.4688 84.3591 10.8513C83.8255 11.5256 83.7498 12.379 83.7498 13.1423V23.5945H80.8425V12.9402C80.8425 11.8657 80.944 11.0858 81.1482 10.4724C81.3515 9.86165 81.6588 9.41008 82.0769 8.99191C83.1043 7.96451 84.6608 7.62864 86.1814 7.62863H91.698V10.0964ZM84.0154 11.2019C84.0053 11.2215 83.9966 11.2417 83.9871 11.2614C83.9995 11.2357 84.0118 11.2098 84.0251 11.1843L84.0154 11.2019Z" fill="#303546"/>
<path d="M121.429 7.22726C122.87 7.26517 124.142 7.5876 125.244 8.19016L125.469 8.31125L125.469 8.31223C126.561 8.92454 127.418 9.76029 128.042 10.82L128.044 10.823L128.168 11.0368C128.772 12.1188 129.076 13.3686 129.076 14.7888V23.5945H126.17V14.823C126.17 13.7746 125.931 12.8675 125.449 12.1071L125.447 12.1042C124.997 11.3386 124.389 10.7497 123.628 10.3366L123.615 10.3298L123.61 10.3249L123.585 10.3112C122.922 9.94968 122.214 9.74616 121.464 9.7009L121.137 9.69113C120.339 9.69145 119.579 9.86624 118.858 10.2126L118.795 10.2439L118.79 10.239L118.659 10.3112C118.004 10.669 117.451 11.1639 117.004 11.7937L116.935 11.8904L116.93 11.8855L116.799 12.1032C116.337 12.8644 116.109 13.7732 116.109 14.823V23.5945H113.203V14.7888C113.203 13.2783 113.535 11.9598 114.196 10.8318L114.202 10.822L114.204 10.82C114.826 9.79701 115.658 8.98559 116.698 8.37961L116.692 8.37375L116.81 8.31027L117.033 8.19016L117.098 8.155L117.1 8.15695C118.284 7.53646 119.629 7.22437 121.139 7.22433L121.429 7.22726Z" fill="#303546"/>
<path d="M75.5222 19.5818H75.5271L75.6697 19.6013C75.9974 19.662 76.2844 19.8225 76.533 20.0827L76.5378 20.0876L76.5408 20.0915C76.8825 20.417 77.0525 20.8078 77.0525 21.2683V21.2751L77.0388 21.4861V21.4919C77.0101 21.7119 76.9376 21.9174 76.824 22.1081L76.78 22.1823L76.7791 22.1814C76.6458 22.4053 76.4668 22.5913 76.2322 22.7321C75.9774 22.885 75.6866 22.9616 75.3591 22.9616C74.9549 22.9616 74.5955 22.8383 74.281 22.5876L74.2771 22.5847L74.1531 22.4753L74.1462 22.4685C73.8249 22.1264 73.666 21.7271 73.6658 21.2683V21.2644L73.6726 21.1042V21.0993L73.6921 20.9548C73.7502 20.6248 73.9037 20.3371 74.1521 20.0886C74.4968 19.7439 74.8979 19.5739 75.3591 19.5739H75.364L75.5222 19.5818Z" fill="#303546"/>
<path d="M75.5222 7.97433H75.5271L75.6697 7.99387C75.9974 8.05455 76.2844 8.21507 76.533 8.47531L76.5378 8.48019L76.5417 8.48508C76.8829 8.81037 77.0525 9.20088 77.0525 9.66086V9.66769L77.0388 9.87863V9.88449C77.0173 10.0496 76.9707 10.2066 76.9011 10.3552L76.824 10.5007L76.7898 10.5564L76.7908 10.5573C76.6566 10.7892 76.4727 10.9804 76.2322 11.1247C75.9774 11.2776 75.6866 11.3541 75.3591 11.3542C74.9549 11.3542 74.5955 11.2309 74.281 10.9802L74.2771 10.9773L74.1531 10.8679L74.1462 10.8611C73.8249 10.519 73.666 10.1197 73.6658 9.66086V9.65695L73.6726 9.4968V9.49191L73.6921 9.34738C73.7502 9.01739 73.9037 8.72965 74.1521 8.48117C74.4968 8.13647 74.8979 7.96652 75.3591 7.96652H75.364L75.5222 7.97433Z" fill="#303546"/>
</svg>
