<svg xmlns="http://www.w3.org/2000/svg" width="130" height="25" viewBox="0 0 130 25" fill="none">
  <path fill-rule="evenodd" clip-rule="evenodd" d="M3.30664 9.28809C3.67687 8.667 4.13917 8.11944 4.69434 7.64648L4.69629 7.64551C5.33534 7.12059 6.05374 6.70946 6.85156 6.41309C7.67295 6.11647 8.52978 5.96782 9.41895 5.96777C11.0329 5.96777 12.4806 6.33167 13.7578 7.06152C15.0347 7.79121 16.0379 8.82891 16.7666 10.1719L16.9033 10.4229C17.5648 11.6925 17.8935 13.1797 17.8936 14.8809C17.8936 16.3092 17.6661 17.6046 17.2109 18.7656C16.7787 19.9031 16.1642 20.8833 15.3662 21.7041C14.5682 22.5249 13.6225 23.1522 12.5293 23.585H12.5273C11.4343 23.9949 10.2291 24.1992 8.91309 24.1992C7.23238 24.1992 5.71827 23.8365 4.37402 23.1074C3.02918 22.378 1.95792 21.3288 1.16113 19.9629L1.16016 19.9609C0.384943 18.57 0 16.9091 0 14.9824V0H3.30664V9.28809ZM8.94629 8.83594C7.90558 8.83599 6.95559 9.0904 6.09375 9.59863L6.09277 9.59766C5.25472 10.1052 4.5812 10.8348 4.07129 11.7881C3.58533 12.7162 3.33989 13.8246 3.33984 15.1172C3.33984 16.3865 3.58463 17.484 4.07031 18.4121C4.5803 19.3434 5.25554 20.0614 6.09473 20.5693C6.95695 21.0778 7.89524 21.332 8.91309 21.332C9.95387 21.332 10.8926 21.077 11.7314 20.5693C12.5929 20.0613 13.2794 19.3427 13.7891 18.4121C14.2971 17.4843 14.5537 16.3761 14.5537 15.084C14.5537 13.8373 14.2975 12.7507 13.7891 11.8223L13.7881 11.8213C13.3005 10.8905 12.6366 10.1612 11.7969 9.63086C10.9585 9.1014 10.0093 8.83594 8.94629 8.83594Z" fill="#FF5B3B"/>
  <path fill-rule="evenodd" clip-rule="evenodd" d="M28.8164 5.96777C30.5874 5.96785 32.1579 6.37721 33.5254 7.19727L33.7822 7.34961C35.0477 8.12969 36.0436 9.1607 36.7695 10.4414C37.567 11.8087 37.9658 13.3573 37.9658 15.084C37.9658 16.6821 37.6157 18.1427 36.915 19.4639L36.7705 19.7256C36.0447 21.0064 35.0483 22.0468 33.7832 22.8467L33.5264 23.0039C32.1587 23.8017 30.5876 24.1991 28.8164 24.1992C27.045 24.1992 25.4733 23.8018 24.1055 23.0039C22.7405 22.1849 21.6578 21.0919 20.8613 19.7266C20.0643 18.3373 19.666 16.7884 19.666 15.084C19.666 13.3794 20.0638 11.8418 20.8613 10.4746C21.608 9.17348 22.6054 8.13125 23.8525 7.34961L24.1055 7.19727C25.4732 6.37684 27.0449 5.96777 28.8164 5.96777ZM28.8164 8.83594C27.663 8.83594 26.6454 9.11161 25.7627 9.66309C25.0083 10.1467 24.3982 10.7836 23.9307 11.5732L23.7383 11.9219C23.2514 12.8514 23.0068 13.9051 23.0068 15.084C23.0069 16.2625 23.2512 17.3269 23.7383 18.2793L23.9297 18.6191C24.397 19.3916 25.008 20.019 25.7627 20.5029L26.0996 20.6973C26.9015 21.12 27.8068 21.332 28.8164 21.332C29.9928 21.332 31.0087 21.0547 31.8682 20.5039C32.731 19.9508 33.4062 19.2096 33.8936 18.2793C34.3807 17.3269 34.625 16.2625 34.625 15.084C34.625 14.0523 34.4376 13.1169 34.0645 12.2764L33.8936 11.9219C33.406 10.9689 32.7306 10.2169 31.8682 9.66406C31.0087 9.11319 29.9929 8.83601 28.8164 8.83594Z" fill="#FF5B3B"/>
  <path fill-rule="evenodd" clip-rule="evenodd" d="M48.8984 5.96777C50.6694 5.96782 52.2399 6.37723 53.6074 7.19727L53.8643 7.34961C55.1297 8.12968 56.1256 9.16069 56.8516 10.4414C57.6491 11.8087 58.0479 13.3573 58.0479 15.084C58.0478 16.6822 57.6978 18.1427 56.9971 19.4639L56.8525 19.7256C56.1267 21.0064 55.1304 22.0468 53.8652 22.8467L53.6084 23.0039C52.2407 23.8017 50.6697 24.1992 48.8984 24.1992C47.1271 24.1992 45.5553 23.8018 44.1875 23.0039C42.8226 22.1849 41.7408 21.0918 40.9443 19.7266L40.9434 19.7256C40.1464 18.3364 39.7491 16.7884 39.749 15.084C39.749 13.3794 40.1468 11.8418 40.9443 10.4746C41.6911 9.17344 42.6883 8.13122 43.9355 7.34961L44.1875 7.19727C45.5553 6.37679 47.1269 5.96777 48.8984 5.96777ZM48.8984 8.83594C47.7449 8.83594 46.7275 9.11156 45.8447 9.66309C45.0903 10.1467 44.4802 10.7836 44.0127 11.5732L43.8203 11.9219C43.3334 12.8514 43.0889 13.9051 43.0889 15.084C43.0889 16.2625 43.3332 17.327 43.8203 18.2793L44.0117 18.6191C44.479 19.3916 45.09 20.019 45.8447 20.5029L46.1816 20.6973C46.9836 21.1201 47.8888 21.332 48.8984 21.332C50.0751 21.332 51.0916 21.0549 51.9512 20.5039C52.8139 19.9508 53.4882 19.2095 53.9756 18.2793C54.4627 17.3269 54.707 16.2625 54.707 15.084C54.707 14.0524 54.5205 13.1168 54.1475 12.2764L53.9756 11.9219C53.4881 10.9691 52.8134 10.2169 51.9512 9.66406C51.0916 9.11308 50.0751 8.83599 48.8984 8.83594Z" fill="#FF5B3B"/>
  <path d="M64.2559 7.42871H70.165V10.2959H64.2559V18.5957C64.2559 19.3186 64.452 19.8887 64.8359 20.3164C65.2406 20.72 65.7978 20.9268 66.5195 20.9268H70.0977V23.7939H65.9453C64.3947 23.7939 63.1626 23.349 62.2617 22.4482L62.2607 22.4473C61.3831 21.5465 60.9492 20.3258 60.9492 18.7979V3.10645H64.2559V7.42871Z" fill="#FF5B3B"/>
  <path d="M104.562 20.7366C103.834 21.1335 103.04 21.3323 102.178 21.3323C101.339 21.3323 100.544 21.1332 99.7933 20.7356C99.0671 20.3391 98.4834 19.7777 98.0424 19.05C97.6032 18.3028 97.3822 17.4206 97.3822 16.4006V7.42896H94.0414V16.4348C94.0414 17.9805 94.3832 19.3377 95.0687 20.5032L95.0697 20.5051C95.7771 21.6687 96.7472 22.5815 97.9779 23.2424L97.9799 23.2434C99.2336 23.8816 100.645 24.1995 102.212 24.1995C103.779 24.1994 105.18 23.882 106.411 23.2434L106.412 23.2424C107.643 22.5815 108.613 21.6687 109.321 20.5051C110.029 19.3394 110.382 17.9812 110.382 16.4348V7.42896H107.042V16.4006C107.042 17.4205 106.809 18.3027 106.347 19.05C105.906 19.7774 105.312 20.3389 104.563 20.7356L104.562 20.7366Z" fill="#8D949E"/>
  <path d="M76.9955 22.2102C77.1661 21.9238 77.2523 21.6095 77.2523 21.2678C77.2523 20.7505 77.0589 20.3073 76.6771 19.9446C76.3152 19.5656 75.8742 19.3733 75.3588 19.3733C74.8416 19.3733 74.3903 19.5664 74.0101 19.9465C73.6471 20.3096 73.4652 20.7523 73.4652 21.2678C73.4653 21.7827 73.6473 22.2333 74.0082 22.6135L74.0121 22.6174C74.3926 22.9789 74.8433 23.1614 75.3588 23.1614C75.7195 23.1614 76.0457 23.0758 76.3344 22.9026C76.6212 22.7305 76.8427 22.4994 76.9965 22.2112L76.9955 22.2102Z" fill="#8D949E"/>
  <path d="M125.969 23.7942H129.276V14.7883C129.276 13.2419 128.923 11.8838 128.214 10.718C127.572 9.62689 126.689 8.76633 125.567 8.13696L125.338 8.01392C124.129 7.35265 122.728 7.02368 121.139 7.02368C119.572 7.02372 118.171 7.35278 116.94 8.01392L116.712 8.13696C115.588 8.76642 114.694 9.62685 114.031 10.718L114.03 10.719C113.344 11.8846 113.002 13.2425 113.002 14.7883V23.7942H116.309V14.8225C116.309 13.8019 116.53 12.9307 116.969 12.2063L116.97 12.2073C117.434 11.4562 118.028 10.8829 118.754 10.4866L118.755 10.4875C119.506 10.09 120.3 9.89091 121.139 9.89087C121.978 9.89087 122.761 10.0895 123.489 10.4866L123.49 10.4875C124.238 10.8838 124.833 11.4555 125.274 12.2053L125.276 12.2083C125.737 12.9324 125.969 13.8026 125.969 14.8225V23.7942Z" fill="#8D949E"/>
  <path d="M76.9955 10.6028C77.1661 10.3164 77.2523 10.002 77.2523 9.6604C77.2523 9.14308 77.0589 8.69985 76.6771 8.33716C76.3152 7.95813 75.8742 7.76589 75.3588 7.76587C74.8416 7.76587 74.3903 7.95895 74.0101 8.33911C73.6471 8.7022 73.4652 9.14489 73.4652 9.6604C73.4653 10.1753 73.6473 10.6259 74.0082 11.0061L74.0121 11.01C74.3926 11.3715 74.8433 11.554 75.3588 11.554C75.7195 11.5539 76.0457 11.4684 76.3344 11.2952C76.6212 11.123 76.8427 10.892 76.9965 10.6038L76.9955 10.6028Z" fill="#8D949E"/>
  <path d="M91.8978 7.42896H86.181C84.6401 7.42896 83.0189 7.76783 81.9359 8.85083C81.4988 9.28791 81.1738 9.7653 80.9594 10.4094C80.7457 11.0513 80.6429 11.8543 80.6429 12.9397V23.7942H83.9496V13.1418C83.9496 12.3839 84.0277 11.5928 84.516 10.9758C84.7808 10.6413 85.1504 10.4698 85.5521 10.3831C85.9549 10.2961 86.3811 10.2961 86.7537 10.2961H91.8978V7.42896Z" fill="#8D949E"/>
</svg>