<svg width="130" height="25" viewBox="0 0 130 25" fill="none" xmlns="http://www.w3.org/2000/svg">
<path d="M3.25635 0.050293V9.47607C3.63836 8.79233 4.12914 8.19522 4.72803 7.68506V7.68408C5.3627 7.16275 6.07678 6.75496 6.86963 6.46045H6.87061C7.68637 6.1659 8.53604 6.01811 9.41943 6.01807C11.0255 6.01807 12.464 6.38085 13.7329 7.10596C15.0016 7.83092 15.9986 8.86135 16.7231 10.1968C17.471 11.5113 17.8442 13.0736 17.8442 14.8813C17.8442 16.3049 17.6184 17.5948 17.1655 18.7495C16.7356 19.8808 16.1244 20.8549 15.3315 21.6704C14.5386 22.486 13.598 23.1083 12.5112 23.5386L12.5103 23.5396C11.4235 23.9471 10.2243 24.1499 8.91357 24.1499C7.24051 24.1499 5.73501 23.7885 4.39893 23.064C3.06242 22.3391 1.99693 21.2963 1.20459 19.938V19.937C0.434313 18.555 0.050293 16.903 0.050293 14.9829V0.050293H3.25635ZM28.8169 6.01807C30.5806 6.01814 32.1432 6.4252 33.5024 7.24072H33.5015C34.8818 8.03278 35.9572 9.10822 36.7271 10.4663C37.5198 11.8253 37.9155 13.3656 37.9155 15.0845C37.9155 16.7807 37.5194 18.3196 36.7271 19.7007L36.728 19.7017C36.0064 20.9751 35.0156 22.0095 33.7573 22.8052L33.5015 22.9614C32.1424 23.7542 30.5803 24.1498 28.8169 24.1499C27.0533 24.1499 25.4906 23.7543 24.1313 22.9614H24.1304C22.8575 22.1977 21.8329 21.1948 21.0571 19.9536L20.9058 19.7017C20.1133 18.3204 19.7173 16.7809 19.7173 15.0845C19.7173 13.388 20.113 11.8594 20.9058 10.5005C21.6978 9.12024 22.7725 8.03297 24.1304 7.24072C25.4897 6.42513 27.053 6.01807 28.8169 6.01807ZM48.8989 6.01807C50.6627 6.01811 52.2252 6.42518 53.5845 7.24072H53.5835C54.9639 8.03277 56.0392 9.10821 56.8091 10.4663C57.6019 11.8253 57.9985 13.3656 57.9985 15.0845C57.9985 16.7809 57.6026 18.3204 56.8101 19.7017C56.0884 20.9751 55.0977 22.0095 53.8394 22.8052L53.5835 22.9614C52.2244 23.7542 50.6624 24.1499 48.8989 24.1499C47.2456 24.1499 45.7692 23.8017 44.4712 23.105L44.2134 22.9614C42.9404 22.1977 41.915 21.1949 41.1392 19.9536L40.9878 19.7017C40.1953 18.3204 39.7993 16.7809 39.7993 15.0845C39.7993 13.388 40.1951 11.8594 40.9878 10.5005C41.78 9.12 42.8552 8.03301 44.2134 7.24072L44.4702 7.09326C45.7684 6.37645 47.2452 6.01807 48.8989 6.01807ZM64.2065 3.15674V7.479H70.1157V10.2466H64.2065V18.5962C64.2066 19.3284 64.4054 19.9113 64.7993 20.3501L64.9624 20.4966C65.3607 20.8159 65.8786 20.9771 66.52 20.9771H70.0474V23.7446H65.9458C64.4051 23.7446 63.1868 23.3029 62.2974 22.4136L62.2964 22.4126C61.4301 21.5233 60.9995 20.3163 60.9995 18.7983V3.15674H64.2065ZM8.94678 8.78564C7.89747 8.7857 6.93869 9.04318 6.06885 9.55615L6.06787 9.55518C5.22118 10.0678 4.54165 10.8045 4.02783 11.7651C3.53726 12.7019 3.29057 13.8186 3.29053 15.1177C3.29053 16.3944 3.53702 17.501 4.02783 18.438C4.54159 19.3758 5.22197 20.1001 6.06885 20.6128L6.39893 20.7935C7.17718 21.1862 8.01536 21.3823 8.91357 21.3823C9.96289 21.3823 10.9103 21.1255 11.7573 20.6128H11.7583C12.628 20.0999 13.3198 19.375 13.8335 18.437C14.3464 17.5004 14.604 16.3834 14.604 15.0845C14.604 13.8309 14.3465 12.7362 13.8335 11.7993L13.8325 11.7983C13.3411 10.8603 12.6722 10.1237 11.8247 9.58838C10.9778 9.0535 10.0185 8.78564 8.94678 8.78564ZM28.8169 8.78564C27.7999 8.78564 26.8864 8.99941 26.0767 9.42627L25.7368 9.62256C24.8668 10.1803 24.1862 10.9386 23.6948 11.8989L23.6938 11.8999C23.2029 12.8373 22.9575 13.8987 22.9575 15.0845C22.9575 16.2704 23.2035 17.343 23.6948 18.3032C24.1861 19.2409 24.8665 19.9885 25.7368 20.5464C26.6284 21.1035 27.6549 21.3823 28.8169 21.3823C30.0016 21.3822 31.0274 21.1032 31.896 20.5464C32.7663 19.9885 33.4467 19.2409 33.938 18.3032C34.4293 17.343 34.6753 16.2704 34.6753 15.0845C34.6753 13.8987 34.4299 12.8373 33.939 11.8999L33.938 11.8989C33.4466 10.9386 32.766 10.1803 31.896 9.62256C31.0273 9.06572 30.0016 8.78572 28.8169 8.78564ZM48.8989 8.78564C47.8822 8.78564 46.9692 8.99963 46.1597 9.42627L45.8188 9.62256C44.9489 10.1803 44.2682 10.9387 43.7769 11.8989V11.8999C43.2858 12.8374 43.0396 13.8985 43.0396 15.0845C43.0396 16.2701 43.2858 17.3422 43.7769 18.3022L43.9692 18.646C44.4406 19.425 45.0573 20.0582 45.8188 20.5464L46.1597 20.7417C46.9693 21.1684 47.8821 21.3823 48.8989 21.3823C50.0837 21.3823 51.1094 21.1032 51.978 20.5464C52.8483 19.9885 53.5287 19.2409 54.02 18.3032C54.5113 17.343 54.7583 16.2704 54.7583 15.0845C54.7583 13.8986 54.5119 12.8373 54.021 11.8999L54.02 11.8989C53.5286 10.9386 52.8481 10.1803 51.978 9.62256C51.1093 9.06571 50.0837 8.78569 48.8989 8.78564Z" fill="#2E6FF2" stroke="#2E6FF2" stroke-width="0.1"/>
<path d="M80.7438 23.6948V12.9399C80.7438 10.7799 81.1518 9.77707 82.0072 8.92164C83.0624 7.86641 84.6509 7.52874 86.1817 7.52874H91.7983V10.1963H86.7557C86.0128 10.1963 85.0065 10.1963 84.4384 10.9139C83.9272 11.5597 83.8504 12.3817 83.8504 13.1425V23.6948H80.7438Z" fill="#47494D"/>
<path d="M102.213 24.1C100.659 24.1 99.2636 23.7848 98.0255 23.1545C96.8099 22.5017 95.8531 21.6012 95.1553 20.4531C94.4799 19.305 94.1423 17.9656 94.1423 16.4348V7.52874H97.2826V16.4011C97.2826 17.4366 97.5077 18.337 97.958 19.1024C98.4082 19.8453 99.0047 20.4193 99.7476 20.8246C100.513 21.2298 101.323 21.4324 102.179 21.4324C103.057 21.4324 103.867 21.2298 104.61 20.8246C105.375 20.4193 105.983 19.8453 106.434 19.1024C106.906 18.337 107.143 17.4366 107.143 16.4011V7.52874H110.283V16.4348C110.283 17.9656 109.934 19.305 109.236 20.4531C108.538 21.6012 107.582 22.5017 106.366 23.1545C105.15 23.7848 103.766 24.1 102.213 24.1Z" fill="#47494D"/>
<path d="M113.103 23.6948V14.7887C113.103 13.2579 113.441 11.9185 114.116 10.7704C114.814 9.6223 115.771 8.7331 116.987 8.10278C118.202 7.44995 119.587 7.12354 121.14 7.12354C122.716 7.12354 124.1 7.44995 125.293 8.10278C126.509 8.7331 127.454 9.6223 128.13 10.7704C128.828 11.9185 129.176 13.2579 129.176 14.7887V23.6948H126.07V14.8224C126.07 13.7869 125.834 12.8977 125.361 12.1548C124.911 11.3895 124.303 10.8042 123.537 10.3989C122.794 9.99374 121.995 9.79114 121.14 9.79114C120.284 9.79114 119.474 9.99374 118.709 10.3989C117.966 10.8042 117.358 11.3895 116.885 12.1548C116.435 12.8977 116.21 13.7869 116.21 14.8224V23.6948H113.103Z" fill="#47494D"/>
<path d="M75.3593 11.4542C74.8701 11.4542 74.4443 11.282 74.0819 10.9378C73.7376 10.5754 73.5654 10.1495 73.5654 9.66029C73.5654 9.17105 73.7376 8.75429 74.0819 8.41001C74.4443 8.04761 74.8701 7.86641 75.3593 7.86641C75.8485 7.86641 76.2653 8.04761 76.6096 8.41001C76.972 8.75429 77.1532 9.17105 77.1532 9.66029C77.1532 9.98645 77.0716 10.2854 76.9086 10.5572C76.7636 10.829 76.5552 11.0465 76.2834 11.2096C76.0116 11.3726 75.7036 11.4542 75.3593 11.4542Z" fill="#47494D"/>
<path d="M74.0819 22.5452C74.4443 22.8895 74.8701 23.0616 75.3593 23.0616C75.7036 23.0616 76.0116 22.9801 76.2834 22.817C76.5552 22.6539 76.7636 22.4365 76.9086 22.1647C77.0716 21.8929 77.1532 21.5939 77.1532 21.2677C77.1532 20.7785 76.972 20.3617 76.6096 20.0175C76.2653 19.6551 75.8485 19.4739 75.3593 19.4739C74.8701 19.4739 74.4443 19.6551 74.0819 20.0175C73.7376 20.3617 73.5654 20.7785 73.5654 21.2677C73.5654 21.757 73.7376 22.1828 74.0819 22.5452Z" fill="#47494D"/>
</svg>
