<svg width="24" height="24" viewBox="0 0 24 24" fill="none" xmlns="http://www.w3.org/2000/svg">
<rect width="24" height="24" rx="4" fill="#2E6FF2"/>
<path fill-rule="evenodd" clip-rule="evenodd" d="M12.3856 4.7602C12.7989 4.64993 13.0816 4.97815 12.8274 5.39648C12.8274 5.39648 10.8687 8.85739 10.5075 9.46676C10.1462 10.0761 10.1459 10.3849 10.2491 10.4707C10.4075 10.6024 10.9054 10.4472 11.0847 10.3925C13.2763 9.7241 18.0844 9.02146 18.6176 12.1388C18.9118 13.8145 18.0369 15.4718 15.5188 17.3027C12.5424 19.4668 7.21759 19.4321 6.20629 18.8965C5.195 18.3608 5.10035 17.3305 5.70018 16.0492C6.3 14.768 7.06497 13.2285 7.21409 12.873C7.36321 12.5175 7.31284 12.3228 7.27698 12.2514C7.13229 11.9633 6.52839 12.0429 5.92489 11.9277C5.63818 11.8843 5.46004 11.6145 5.67993 11.1184C5.89982 10.6223 7.41587 6.22301 7.51011 6.00035C7.60434 5.7777 7.73364 5.67773 7.86115 5.65317L12.3856 4.7602ZM14.3156 13.0097C13.9936 12.6465 13.2161 12.3652 11.8731 13.034C10.5301 13.7028 9.23724 15.5711 9.61933 16.0058C10.0014 16.4405 11.5827 16.1855 13.1455 15.2558C14.7083 14.3261 14.6376 13.373 14.3156 13.0097Z" fill="white"/>
</svg>
